<svg width="1024" height="1024" xmlns="http://www.w3.org/2000/svg" preserveAspectRatio="xMidYMid meet">
 <metadata>Created by potrace 1.16, written by Peter Selinger 2001-2019</metadata>

 <g>
  <title>Layer 1</title>
  <rect id="svg_7" height="701.33333" width="942.66667" y="168" x="55.33333" opacity="undefined" stroke-opacity="null" stroke-dasharray="null" stroke-width="null" stroke="null" fill="#ffffff"/>
  <g stroke="null" id="svg_1" fill="#000000" transform="translate(0,1024) scale(0.10000000149011612,-0.10000000149011612) ">
   <path stroke="null" id="svg_2" d="m629,10242.66667c-294,-122 -513,-351 -608,-633l-21,-62l0,-4371l0,-4371l21,-61c26,-78 111,-247 162,-323c99,-147 281,-297 439,-363l77,-32l4441,0l4441,0l77,32c201,84 404,274 504,473c14,28 38,84 52,125l26,75l-2,4390l-3,4390l-36,87c-75,183 -211,370 -349,481c-53,43 -128,90 -200,125l-115,57l-4425,2l-4425,2l-56,-23zm6581,-2651l-565,-565l-75,0l-75,0l565,565l565,565l75,0l75,0l-565,-565zm232,-2382l3,-1288l98,-3l97,-3l0,-29l0,-30l-515,0l-515,0l0,30l0,30l95,0l95,0l0,1260l0,1260l-105,0l-105,0l0,30l0,30l425,0l425,0l2,-1287zm-5354,1075l3,-38l-185,0l-186,0l0,-1155l0,-1155l103,0c256,1 431,92 596,311c55,72 167,267 223,384c21,46 26,50 58,50c35,0 35,-1 33,-40c-5,-98 -54,-723 -59,-752l-5,-33l-914,0l-915,0l0,40l0,40l100,0l100,0l0,1155l0,1155l-100,0l-100,0l0,40l0,40l623,-2l622,-3l3,-37zm1920,-733c264,-43 439,-161 543,-366c118,-235 116,-717 -6,-964c-95,-191 -262,-319 -484,-369c-174,-40 -434,-38 -601,3c-373,93 -570,382 -570,838c0,310 103,554 295,700c106,81 253,140 403,162c96,14 320,12 420,-4zm1933,-9c158,-36 301,-114 382,-207c133,-154 186,-329 187,-615c0,-304 -62,-506 -203,-660c-151,-165 -355,-236 -672,-236c-359,0 -593,108 -744,342c-88,136 -125,289 -124,520c0,175 11,248 57,382c88,251 308,427 606,482c107,20 411,15 511,-8zm2874,9c358,-63 544,-305 545,-712l0,-73l-487,-2l-488,-3l2,-160c5,-406 81,-588 271,-650c41,-14 76,-17 162,-13c101,4 115,7 183,41c123,61 234,199 277,345c13,42 25,49 62,34c16,-6 15,-12 -6,-72c-64,-185 -166,-310 -309,-380c-103,-50 -173,-68 -309,-79c-390,-32 -692,85 -860,332c-91,135 -128,268 -135,489c-3,98 -1,182 6,224c18,103 66,242 108,313c48,80 171,206 245,249c105,62 246,109 373,125c80,10 280,6 360,-8zm-5500,-2855l-630,-630l-75,0l-75,0l630,630l630,630l75,0l75,0l-630,-630z"/>
   <path stroke="null" id="svg_3" d="m3713,5496.66667c-41,-13 -98,-80 -117,-139c-36,-109 -41,-188 -41,-671c0,-410 3,-488 18,-570c19,-102 51,-167 100,-204c38,-28 149,-30 189,-4c44,29 76,95 94,198c25,140 26,1007 1,1153c-19,110 -52,185 -96,216c-34,25 -103,34 -148,21z"/>
   <path stroke="null" id="svg_4" d="m5587,5492.66667c-51,-19 -72,-39 -102,-100c-49,-101 -57,-208 -52,-756c4,-539 7,-572 63,-668c47,-79 172,-107 242,-55c99,73 116,210 109,863c-4,327 -9,454 -20,511c-24,122 -68,189 -138,209c-43,13 -56,12 -102,-4z"/>
   <path stroke="null" id="svg_5" d="m8480,5458.66667c-65,-65 -89,-189 -90,-454l0,-168l175,0l175,0l0,183c0,375 -36,477 -167,477c-51,0 -59,-3 -93,-38z"/>
  </g>
 </g>
</svg>