<svg id="Capa_1" enable-background="new 0 0 512 512" height="512" viewBox="0 0 512 512" width="512" xmlns="http://www.w3.org/2000/svg"><g><g><g><path d="m468.908 215.076c.351.049.699.073 1.043.073 3.681 0 6.892-2.713 7.414-6.462.979-7.03 1.475-14.219 1.475-21.367v-.368c-.018-4.128-3.37-7.462-7.494-7.462-.011 0-.022 0-.033 0-4.139.018-7.48 3.388-7.462 7.527v.303c0 6.459-.448 12.952-1.332 19.3-.571 4.099 2.29 7.885 6.389 8.456z"/><path d="m452.987 115.956c3.504-2.204 4.557-6.831 2.353-10.334-3.791-6.026-8.043-11.845-12.639-17.293-2.667-3.164-7.396-3.567-10.561-.898-3.164 2.668-3.566 7.396-.898 10.561 4.149 4.92 7.988 10.172 11.41 15.612 1.424 2.264 3.86 3.505 6.351 3.505 1.364-.001 2.744-.373 3.984-1.153z"/><path d="m469.499 134.451c-1.424-3.886-5.732-5.882-9.616-4.458-3.886 1.424-5.882 5.73-4.458 9.616 2.212 6.036 4.015 12.284 5.359 18.571.753 3.52 3.862 5.929 7.322 5.929.519 0 1.046-.054 1.574-.167 4.048-.865 6.627-4.848 5.762-8.896-1.491-6.971-3.49-13.901-5.943-20.595z"/><path d="m423.014 303.401c1.788 0 3.582-.636 5.015-1.927 5.293-4.771 10.301-9.957 14.882-15.413 2.662-3.169 2.25-7.897-.92-10.559-3.169-2.662-7.897-2.249-10.559.92-4.137 4.927-8.658 9.609-13.437 13.917-3.075 2.771-3.321 7.51-.55 10.584 1.479 1.642 3.52 2.478 5.569 2.478z"/><path d="m465.138 230.257c-3.889-1.416-8.191.59-9.606 4.48-2.199 6.042-4.848 11.986-7.875 17.667-1.946 3.653-.563 8.192 3.091 10.138 1.123.598 2.328.882 3.517.882 2.68 0 5.272-1.442 6.621-3.972 3.356-6.299 6.294-12.889 8.732-19.589 1.415-3.889-.59-8.19-4.48-9.606z"/><path d="m420.87 76.588c2.544-3.265 1.96-7.974-1.304-10.518-5.628-4.386-11.611-8.412-17.782-11.967-3.587-2.065-8.168-.833-10.235 2.753-2.066 3.587-.833 8.169 2.753 10.235 5.57 3.208 10.969 6.842 16.05 10.801 1.369 1.067 2.991 1.584 4.602 1.584 2.231 0 4.438-.992 5.916-2.888z"/><path d="m267.413 44.928c-6.595 2.679-13.065 5.852-19.23 9.431-3.579 2.078-4.797 6.665-2.719 10.245 1.391 2.396 3.904 3.733 6.488 3.733 1.277 0 2.572-.327 3.756-1.014 5.561-3.229 11.397-6.091 17.346-8.507 3.835-1.558 5.68-5.929 4.123-9.764-1.559-3.836-5.93-5.681-9.764-4.124z"/><path d="m222.25 73.284c-5.288 4.778-10.289 9.969-14.864 15.429-2.658 3.173-2.241 7.899.932 10.558 1.404 1.176 3.111 1.75 4.809 1.75 2.141 0 4.266-.912 5.749-2.682 4.131-4.93 8.646-9.618 13.422-13.932 3.071-2.775 3.312-7.514.537-10.585-2.774-3.073-7.513-3.313-10.585-.538z"/><path d="m319.584 33.786c-7.141.257-14.309 1.014-21.305 2.252-4.076.721-6.796 4.609-6.075 8.685.643 3.635 3.804 6.191 7.371 6.191.433 0 .872-.038 1.314-.116 6.314-1.116 12.785-1.8 19.233-2.032 4.137-.149 7.369-3.623 7.22-7.759-.148-4.137-3.66-7.365-7.758-7.221z"/><path d="m351.606 35.947c-4.081-.708-7.957 2.027-8.664 6.105s2.027 7.957 6.105 8.664c6.339 1.098 12.654 2.655 18.768 4.627.765.247 1.54.364 2.303.364 3.165 0 6.107-2.021 7.131-5.195 1.271-3.939-.892-8.163-4.831-9.433-6.78-2.188-13.783-3.915-20.812-5.132z"/><path d="m325.205.356c-87.828 0-161.671 60.937-181.524 142.746-17.086 4.042-33.571 10.46-48.878 19.138-3.601 2.041-4.865 6.615-2.824 10.216 2.04 3.601 6.615 4.865 10.216 2.824 25.662-14.548 54.916-22.238 84.601-22.238 94.734 0 171.806 77.072 171.806 171.806s-77.072 171.806-171.806 171.806-171.807-77.072-171.807-171.806c0-50.129 21.824-97.638 59.876-130.346 3.139-2.698 3.496-7.43.798-10.568-2.698-3.139-7.43-3.497-10.568-.798-41.369 35.557-65.095 87.21-65.095 141.712 0 102.999 83.796 186.795 186.795 186.795 87.836 0 161.693-60.944 181.539-142.764 37.722-8.95 72.102-29.504 98.012-59.366 2.712-3.126 2.377-7.859-.749-10.572-3.127-2.712-7.859-2.377-10.572.749-22.299 25.701-51.419 43.906-83.495 52.887 1.266-8.473 1.96-17.13 2.044-25.931 1.364 2.311 3.845 3.68 6.45 3.68.936 0 1.889-.177 2.81-.55 6.597-2.671 13.07-5.836 19.241-9.409 3.582-2.074 4.805-6.659 2.731-10.241s-6.659-4.805-10.241-2.731c-5.566 3.223-11.406 6.079-17.355 8.487-1.638.663-2.909 1.841-3.713 3.27-2.934-97.475-80.902-176.411-177.988-180.891 2.054-5.426 4.449-10.766 7.17-15.888 1.942-3.655.553-8.193-3.103-10.135-3.654-1.941-8.192-.553-10.135 3.103-3.349 6.303-6.279 12.898-8.708 19.599-.388 1.069-.509 2.167-.412 3.23-6.821.243-13.611.864-20.338 1.838 20.541-71.886 86.831-124.663 165.223-124.663 94.734 0 171.806 77.072 171.806 171.806 0 30-7.845 59.528-22.687 85.389-2.06 3.59-.82 8.17 2.769 10.231 3.591 2.06 8.171.82 10.231-2.769 16.142-28.129 24.675-60.236 24.675-92.851 0-102.999-83.796-186.795-186.795-186.795z"/><path d="m281.155 203.766c-5.629-4.386-11.611-8.412-17.781-11.966-3.586-2.065-8.169-.832-10.235 2.753-2.066 3.587-.833 8.169 2.753 10.235 5.569 3.208 10.969 6.842 16.05 10.801 1.369 1.067 2.991 1.583 4.601 1.583 2.231 0 4.439-.992 5.917-2.889 2.545-3.264 1.96-7.973-1.305-10.517z"/><path d="m279.584 428.037c-3.075 2.771-3.321 7.51-.55 10.584 1.48 1.642 3.521 2.477 5.57 2.477 1.788 0 3.582-.636 5.015-1.927 5.293-4.771 10.3-9.957 14.882-15.413 2.662-3.169 2.25-7.897-.92-10.559-3.169-2.661-7.897-2.25-10.559.92-4.137 4.928-8.658 9.61-13.438 13.918z"/><path d="m304.291 226.025c-2.667-3.164-7.395-3.567-10.561-.898-3.164 2.668-3.566 7.396-.898 10.561 4.149 4.92 7.988 10.172 11.41 15.612 1.424 2.264 3.86 3.505 6.351 3.505 1.364 0 2.744-.372 3.983-1.152 3.504-2.204 4.557-6.831 2.353-10.334-3.791-6.027-8.043-11.845-12.638-17.294z"/><path d="m234.009 178.775c-6.781-2.187-13.783-3.914-20.812-5.131-4.082-.708-7.957 2.027-8.664 6.105-.706 4.078 2.027 7.957 6.105 8.664 6.339 1.098 12.654 2.655 18.768 4.627.765.247 1.54.364 2.302.364 3.165 0 6.107-2.021 7.131-5.195 1.272-3.94-.891-8.163-4.83-9.434z"/><path d="m234.665 463.341c1.18 2.915 3.986 4.684 6.949 4.684.936 0 1.889-.177 2.81-.55 6.597-2.671 13.07-5.836 19.241-9.409 3.582-2.074 4.805-6.659 2.731-10.241-2.075-3.583-6.659-4.806-10.241-2.731-5.566 3.223-11.406 6.079-17.355 8.487-3.838 1.554-5.689 5.923-4.135 9.76z"/><path d="m331.089 272.148c-1.424-3.887-5.73-5.882-9.616-4.458s-5.882 5.73-4.458 9.616c2.212 6.036 4.016 12.284 5.359 18.571.753 3.52 3.862 5.929 7.322 5.929.519 0 1.046-.054 1.574-.167 4.048-.866 6.627-4.848 5.762-8.896-1.49-6.971-3.489-13.901-5.943-20.595z"/><path d="m338.955 346.383c.979-7.03 1.475-14.219 1.475-21.367v-.368c-.018-4.128-3.37-7.462-7.494-7.462-.011 0-.022 0-.033 0-4.139.018-7.48 3.388-7.462 7.527v.303c0 6.459-.448 12.952-1.332 19.3-.571 4.099 2.29 7.886 6.389 8.456.351.049.699.073 1.043.073 3.681 0 6.892-2.713 7.414-6.462z"/><path d="m326.728 367.954c-3.89-1.416-8.19.589-9.606 4.48-2.199 6.042-4.849 11.986-7.875 17.667-1.946 3.653-.563 8.192 3.091 10.138 1.123.598 2.328.882 3.517.882 2.68 0 5.273-1.442 6.621-3.972 3.356-6.299 6.294-12.889 8.732-19.589 1.415-3.889-.59-8.19-4.48-9.606z"/><path d="m69.909 236.967c1.404 1.176 3.11 1.75 4.809 1.75 2.141 0 4.266-.912 5.749-2.682 4.131-4.931 8.646-9.618 13.422-13.932 3.071-2.775 3.312-7.514.537-10.585s-7.513-3.312-10.585-.537c-5.288 4.778-10.289 9.969-14.864 15.429-2.659 3.173-2.241 7.899.932 10.557z"/><path d="m46.813 282.24c.844.306 1.706.451 2.554.451 3.065 0 5.941-1.894 7.046-4.942 2.191-6.043 4.834-11.991 7.855-17.677 1.942-3.655.553-8.193-3.103-10.135-3.653-1.942-8.192-.553-10.135 3.103-3.349 6.303-6.279 12.898-8.708 19.599-1.411 3.891.6 8.19 4.491 9.601z"/><path d="m42.44 377.719c1.11 3.04 3.982 4.926 7.04 4.926.854 0 1.722-.147 2.57-.457 3.888-1.42 5.889-5.723 4.469-9.611-2.204-6.037-4-12.287-5.338-18.578-.861-4.049-4.841-6.634-8.889-5.772-4.049.861-6.633 4.841-5.772 8.889 1.484 6.977 3.475 13.909 5.92 20.603z"/><path d="m69.186 423.873c1.482 1.762 3.603 2.669 5.738 2.669 1.703 0 3.416-.578 4.821-1.76 3.167-2.665 3.575-7.393.909-10.56-4.143-4.925-7.976-10.181-11.391-15.625-2.2-3.506-6.825-4.565-10.332-2.365-3.506 2.2-4.565 6.826-2.365 10.332 3.785 6.031 8.03 11.855 12.62 17.309z"/><path d="m34.611 303.825c-.962 6.975-1.45 14.104-1.45 21.257v.102c0 4.139 3.355 7.495 7.495 7.495s7.494-3.355 7.494-7.495v-.168c0-6.404.441-12.845 1.31-19.143.565-4.1-2.3-7.883-6.4-8.448-4.106-.563-7.884 2.3-8.449 6.4z"/><path d="m184.489 471.327c.141 4.048 3.467 7.233 7.485 7.233.088 0 .177-.001.266-.004 7.139-.249 14.308-.998 21.307-2.228 4.077-.716 6.801-4.601 6.085-8.678-.715-4.077-4.601-6.803-8.678-6.085-6.317 1.109-12.789 1.786-19.236 2.01-4.136.146-7.373 3.616-7.229 7.752z"/><path d="m181.174 171.483c-7.141.257-14.309 1.014-21.305 2.252-4.076.721-6.795 4.609-6.075 8.685.643 3.635 3.804 6.191 7.371 6.191.433 0 .872-.038 1.314-.116 6.314-1.116 12.785-1.8 19.233-2.032 4.137-.149 7.369-3.623 7.22-7.759-.148-4.137-3.626-7.391-7.758-7.221z"/><path d="m134.594 461.765c-1.275 3.938.883 8.163 4.821 9.439 6.779 2.195 13.779 3.93 20.805 5.155.436.076.869.113 1.297.113 3.574 0 6.739-2.566 7.374-6.208.711-4.078-2.018-7.96-6.095-8.671-6.337-1.105-12.65-2.669-18.764-4.649-3.936-1.276-8.163.883-9.438 4.821z"/><path d="m91.003 435.638c-2.548 3.262-1.969 7.972 1.292 10.52 5.623 4.392 11.601 8.425 17.769 11.987 1.181.682 2.469 1.006 3.741 1.006 2.589 0 5.109-1.344 6.497-3.748 2.07-3.584.843-8.168-2.742-10.238-5.566-3.215-10.962-6.855-16.037-10.82-3.263-2.548-7.973-1.968-10.52 1.293z"/><path d="m129.003 182.625c-6.595 2.679-13.065 5.852-19.23 9.431-3.579 2.078-4.797 6.665-2.719 10.245 1.391 2.396 3.904 3.733 6.488 3.733 1.277 0 2.572-.327 3.756-1.014 5.561-3.229 11.397-6.091 17.346-8.507 3.835-1.558 5.68-5.929 4.123-9.764-1.558-3.836-5.931-5.682-9.764-4.124z"/></g></g></g></svg>