<svg width="12" height="12" xmlns="http://www.w3.org/2000/svg" class="pm">
 <title>Coins</title>

 <g>
  <title>Layer 1</title>
  <g stroke="null" id="svg_81">
   <path stroke="null" id="svg_1" fill="#FA8A00" d="m7.30979,7.16847l-0.53716,0l0,0.75892l0.53716,0l0,-0.75892zm-6.30017,0l-0.53716,0l0,0.75892l0.53716,0l0,-0.75892z"/>
   <path stroke="null" id="svg_2" fill="#FA8A00" d="m3.89167,9.77557c1.88775,0 3.41702,-0.827 3.41702,-1.84819c0,-1.02119 -1.52927,-1.84819 -3.41702,-1.84819s-3.41812,0.827 -3.41812,1.84819c0,1.02119 1.53037,1.84819 3.41812,1.84819z"/>
   <path stroke="null" id="svg_3" fill="#FFCA00" d="m3.89167,9.01777c1.88775,0 3.41702,-0.82811 3.41702,-1.8493s-1.52927,-1.84819 -3.41702,-1.84819s-3.41812,0.827 -3.41812,1.84819c0,1.02119 1.53037,1.8493 3.41812,1.8493z"/>
   <path stroke="null" id="svg_4" fill="#FA8A00" d="m3.89167,8.46755c1.52489,0 2.76256,-0.58146 2.76256,-1.29909c0,-0.71651 -1.23767,-1.29797 -2.76256,-1.29797c-1.52599,0 -2.76256,0.58035 -2.76256,1.29797s1.23657,1.29909 2.76256,1.29909z"/>
   <path stroke="null" id="svg_5" fill="#FFE700" d="m3.89167,8.46755c1.52489,0 2.76256,-0.56584 2.76256,-1.26337c0,-0.69753 -1.23767,-1.26337 -2.76256,-1.26337c-1.52599,0 -2.76256,0.56584 -2.76256,1.26337c0,0.69753 1.23657,1.26337 2.76256,1.26337z"/>
   <path stroke="null" id="svg_6" fill="#FF9F00" d="m3.89167,8.37269c1.52599,0 2.76256,-0.54463 2.76256,-1.2165c0,-0.66963 -1.23657,-1.21538 -2.76256,-1.21538c-1.52599,0 -2.76256,0.54463 -2.76256,1.2165c0,0.67075 1.23657,1.21538 2.76256,1.21538z"/>
   <path stroke="null" id="svg_7" fill="#FFCA00" d="m3.66036,6.95307c-0.40561,0.21428 -0.53168,0.24107 -0.62925,0.2154c-0.09209,-0.02455 -0.13484,-0.11161 0.04166,-0.2712c0.13265,-0.11719 0.28503,-0.21205 0.45166,-0.27901l0.13155,-0.05469l-0.32888,-0.24107l-0.12497,0.05022a2.10481,2.14283 0 0 0 -0.47139,0.26227l-0.35957,-0.09263l-0.3793,0.31919l0.39356,0.10491c-0.21158,0.29017 -0.12936,0.54017 0.23021,0.64062c0.46481,0.12946 0.94936,-0.08928 1.38567,-0.33482c0.36834,-0.20424 0.51414,-0.20647 0.60842,-0.18192c0.14909,0.03795 0.15128,0.17299 0.00219,0.33035c-0.15348,0.15513 -0.33655,0.27678 -0.53826,0.35937l-0.16225,0.06696l0.39904,0.30133l0.12936,-0.05245c0.22144,-0.09598 0.42535,-0.22991 0.60075,-0.39508l0.43192,0.11607l0.31791,-0.37165l-0.45166,-0.11607c0.16773,-0.34374 -0.06029,-0.56696 -0.37273,-0.64396c-0.48564,-0.12053 -0.94716,0.07812 -1.30454,0.26785l-0.0011,0z"/>
   <path stroke="null" id="svg_8" fill="#ffe300" d="m5.34092,7.32918c0.12059,-0.24888 0.03289,-0.43415 -0.14251,-0.54687l-0.48016,0.45647a0.36067,0.36718 0 0 1 -0.10634,0.18303a1.53695,1.56471 0 0 1 -0.39246,0.29017l-0.21596,0.20535l0.30695,0.23326l0.13045,-0.05357c0.09318,-0.04018 0.18307,-0.08705 0.26968,-0.14174l0.65337,-0.62164l-0.02302,-0.00446zm-1.68056,-0.37611c-0.29708,0.15625 -0.44289,0.21205 -0.53936,0.22209l-0.46481,0.44084c0.45166,0.10603 0.92085,-0.10379 1.3451,-0.34374a2.19251,2.23211 0 0 1 0.30914,-0.14509l0.49441,-0.46874c-0.42644,-0.04799 -0.82548,0.125 -1.14449,0.29464zm-0.58759,-0.0558c0.08112,-0.07366 0.17102,-0.13727 0.26749,-0.18973l0.22254,-0.21205l-0.23679,-0.1741l-0.06468,0.02567l-0.98882,0.94083c0.00877,0.10379 0.07235,0.19085 0.18636,0.25446l0.49441,-0.46874c0.00329,-0.04241 0.03727,-0.10044 0.11949,-0.17634zm1.13791,-1.01673l0.52839,-0.50222a6.54573,6.66396 0 0 0 -0.4111,-0.04241l-0.56347,0.53571c0.1469,-0.00335 0.29599,0 0.44618,0.00893zm-0.03179,2.57809a6.13683,6.24768 0 0 1 -0.73778,-0.00893l-0.51634,0.49106c0.0285,0.00335 0.05481,0.00893 0.08332,0.01339a6.10833,6.21866 0 0 0 0.59198,0.05469l0.0011,0l0.57773,-0.55022zm-2.27363,-0.3895a2.31967,2.36157 0 0 1 -0.28503,-0.16294l-0.41987,0.39955c0.08989,0.06138 0.18198,0.1183 0.27735,0.16964l0.42754,-0.40624zm0.5854,0.78347l0.48454,-0.46093a4.24799,4.32471 0 0 1 -0.88468,-0.23995l-0.43631,0.41294c0.26858,0.12277 0.54813,0.21986 0.83644,0.28794zm3.29644,-2.62943c0.16444,0.07143 0.32011,0.16294 0.46262,0.27009l0.42206,-0.40066a2.58278,2.62943 0 0 0 -0.21267,-0.14509a3.39071,3.45196 0 0 0 -0.24008,-0.13281l-0.43192,0.40848zm-1.18067,-0.30915c0.27187,0.03348 0.54045,0.0904 0.80246,0.17076l0.44946,-0.42633a5.02742,5.11823 0 0 0 -0.88577,-0.24107l-0.50866,0.48102l0.14251,0.01562z"/>
   <path stroke="null" id="svg_9" fill="#FA8A00" d="m7.30979,6.19415l-0.53716,0l0,0.75892l0.53716,0l0,-0.75892zm-6.30017,0l-0.53716,0l0,0.75892l0.53716,0l0,-0.75892z"/>
   <path stroke="null" id="svg_10" fill="#FA8A00" d="m3.89167,8.80125c1.88775,0 3.41702,-0.827 3.41702,-1.84819c0,-1.02119 -1.52927,-1.8493 -3.41702,-1.8493s-3.41812,0.82811 -3.41812,1.8493s1.53037,1.84707 3.41812,1.84707l0,0.00112z"/>
   <path stroke="null" id="svg_11" fill="#FFCA00" d="m3.89167,8.04345c1.88775,0 3.41702,-0.82811 3.41702,-1.8493s-1.52927,-1.84707 -3.41702,-1.84707s-3.41812,0.82588 -3.41812,1.84707s1.53037,1.8493 3.41812,1.8493z"/>
   <path stroke="null" id="svg_12" fill="#FA8A00" d="m3.89167,7.49324c1.52489,0 2.76256,-0.58146 2.76256,-1.29909c0,-0.71651 -1.23767,-1.29797 -2.76256,-1.29797c-1.52599,0 -2.76256,0.58035 -2.76256,1.29797s1.23657,1.3002 2.76256,1.3002l0,-0.00112z"/>
   <path stroke="null" id="svg_13" fill="#FFE700" d="m3.89167,7.49212c1.52489,0 2.76256,-0.56584 2.76256,-1.26337c0,-0.69753 -1.23767,-1.26337 -2.76256,-1.26337c-1.52599,0 -2.76256,0.56584 -2.76256,1.26337c0,0.69753 1.23657,1.26337 2.76256,1.26337z"/>
   <path stroke="null" id="svg_14" fill="#FF9F00" d="m3.89167,7.39726c1.52599,0 2.76256,-0.54463 2.76256,-1.2165c0,-0.66963 -1.23657,-1.21538 -2.76256,-1.21538c-1.52599,0 -2.76256,0.54463 -2.76256,1.2165c0,0.67075 1.23657,1.21538 2.76256,1.21538z"/>
   <path stroke="null" id="svg_15" fill="#FFCA00" d="m3.66036,5.97875c-0.40561,0.21428 -0.53168,0.24107 -0.62925,0.2154c-0.09209,-0.02455 -0.13484,-0.11161 0.04166,-0.2712c0.13265,-0.11719 0.28503,-0.21205 0.45166,-0.27901l0.13155,-0.05469l-0.32888,-0.24107l-0.12497,0.05022a2.11577,2.15399 0 0 0 -0.47139,0.26227l-0.35957,-0.09263l-0.3793,0.31919l0.39356,0.10491c-0.21158,0.29017 -0.12936,0.54017 0.23021,0.64062c0.46481,0.12946 0.94936,-0.08928 1.38567,-0.33482c0.36834,-0.20424 0.51414,-0.20647 0.60842,-0.18303c0.14909,0.03906 0.15128,0.1741 0.00219,0.33147c-0.15348,0.15513 -0.33655,0.27678 -0.53826,0.35937l-0.16115,0.06696l0.39794,0.30133l0.12936,-0.05245c0.22254,-0.09598 0.42644,-0.22879 0.60294,-0.39397l0.43192,0.11607l0.31791,-0.37276l-0.45275,-0.11607c0.16773,-0.34486 -0.06029,-0.56807 -0.37273,-0.64396c-0.48674,-0.12053 -0.94716,0.07812 -1.30674,0.26785z"/>
   <path stroke="null" id="svg_16" fill="#ffe300" d="m5.34092,6.35486c0.12059,-0.24888 0.03289,-0.43415 -0.14251,-0.54687l-0.48016,0.45647a0.36067,0.36718 0 0 1 -0.10634,0.18303a1.53695,1.56471 0 0 1 -0.39246,0.29017l-0.21596,0.20535l0.30695,0.23326l0.13045,-0.05357a1.85267,1.88613 0 0 0 0.26968,-0.14174l0.65227,-0.62053l-0.02193,-0.00558zm-1.68056,-0.37611c-0.29708,0.15625 -0.44289,0.21205 -0.53936,0.22209l-0.46481,0.44084c0.45166,0.10603 0.92085,-0.10379 1.3451,-0.34374a2.19251,2.23211 0 0 1 0.30914,-0.14509l0.49441,-0.46874c-0.42644,-0.04799 -0.82548,0.125 -1.14449,0.29464zm-0.58759,-0.0558a1.41417,1.43971 0 0 1 0.26749,-0.18973l0.22254,-0.21205l-0.23679,-0.17299l-0.06468,0.02567l-0.98882,0.93972c0.00877,0.10379 0.07235,0.19085 0.18636,0.25558l0.49441,-0.46874c0.00329,-0.04464 0.03727,-0.10156 0.11949,-0.17745zm1.13791,-1.01784l0.52839,-0.50111a6.54573,6.66396 0 0 0 -0.4111,-0.04241l-0.56347,0.53571c0.1469,-0.00335 0.29599,0 0.44618,0.00893l0,-0.00112zm-0.03179,2.5792a5.9417,6.04902 0 0 1 -0.73778,-0.00893l-0.51634,0.49106c0.0285,0.00335 0.05481,0.00893 0.08332,0.01339a6.10833,6.21866 0 0 0 0.59198,0.0558l0.0011,0l0.57773,-0.55133zm-2.27363,-0.39062a2.31858,2.36046 0 0 1 -0.28503,-0.16294l-0.41987,0.39955c0.08989,0.06138 0.18198,0.1183 0.27735,0.16964l0.42754,-0.40624zm0.5854,0.78459l0.48454,-0.46093a4.24908,4.32583 0 0 1 -0.88468,-0.23995l-0.43631,0.41294c0.26858,0.12277 0.54813,0.21986 0.83644,0.28794zm3.29644,-2.62943c0.16444,0.07143 0.32011,0.16294 0.46262,0.27009l0.42206,-0.40066a2.58278,2.62943 0 0 0 -0.21267,-0.14509a3.39071,3.45196 0 0 0 -0.24008,-0.13281l-0.43192,0.40848zm-1.18067,-0.30915c0.27187,0.03348 0.54045,0.08928 0.80246,0.17076l0.44946,-0.42633a5.02633,5.11711 0 0 0 -0.88577,-0.24107l-0.50866,0.48214l0.14251,0.01451z"/>
   <path stroke="null" id="svg_17" fill="#FA8A00" d="m7.30979,5.21091l-0.53716,0l0,0.75892l0.53716,0l0,-0.75892zm-6.30017,0l-0.53716,0l0,0.75892l0.53716,0l0,-0.75892z"/>
   <path stroke="null" id="svg_18" fill="#FA8A00" d="m3.89167,7.81801c1.88775,0 3.41702,-0.827 3.41702,-1.84819c0,-1.02119 -1.52927,-1.84819 -3.41702,-1.84819s-3.41812,0.827 -3.41812,1.84819c0,1.02119 1.53037,1.84819 3.41812,1.84819z"/>
   <path stroke="null" id="svg_19" fill="#FFCA00" d="m3.89167,7.05909c1.88775,0 3.41702,-0.82588 3.41702,-1.84819c0,-1.02007 -1.52927,-1.84819 -3.41702,-1.84819s-3.41812,0.82811 -3.41812,1.84819c0,1.02119 1.53037,1.8493 3.41812,1.8493l0,-0.00112z"/>
   <path stroke="null" id="svg_20" fill="#FA8A00" d="m3.89167,6.50999c1.52489,0 2.76256,-0.58146 2.76256,-1.29909c0,-0.71651 -1.23767,-1.29797 -2.76256,-1.29797c-1.52599,0 -2.76256,0.58146 -2.76256,1.29797c0,0.71762 1.23657,1.29909 2.76256,1.29909z"/>
   <path stroke="null" id="svg_21" fill="#FFE700" d="m3.89167,6.50999c1.52489,0 2.76256,-0.56584 2.76256,-1.26337c0,-0.69753 -1.23767,-1.26226 -2.76256,-1.26226c-1.52599,0 -2.76256,0.56472 -2.76256,1.26226s1.23657,1.26337 2.76256,1.26337z"/>
   <path stroke="null" id="svg_22" fill="#FF9F00" d="m3.89167,6.41513c1.52599,0 2.76256,-0.54463 2.76256,-1.2165c0,-0.66963 -1.23657,-1.21427 -2.76256,-1.21427c-1.52599,0 -2.76256,0.54352 -2.76256,1.21538c0,0.67075 1.23657,1.21538 2.76256,1.21538z"/>
   <path stroke="null" id="svg_23" fill="#FFCA00" d="m3.66036,4.99551c-0.40561,0.2154 -0.53168,0.24218 -0.62925,0.2154c-0.09209,-0.02455 -0.13484,-0.11049 0.04166,-0.27009a1.55668,1.5848 0 0 1 0.45166,-0.27901l0.13155,-0.0558l-0.32888,-0.24107l-0.12497,0.05022a2.15962,2.19863 0 0 0 -0.47139,0.26227l-0.35957,-0.09152l-0.3793,0.31808l0.39356,0.10491c-0.21158,0.29017 -0.12936,0.54017 0.23021,0.64173c0.46481,0.12946 0.94936,-0.08928 1.38567,-0.33482c0.36834,-0.20535 0.51414,-0.20759 0.60842,-0.18303c0.14909,0.03795 0.15128,0.17299 0.00219,0.33147c-0.15348,0.15402 -0.33655,0.27678 -0.53826,0.35937l-0.16115,0.06696l0.39794,0.30133l0.12936,-0.05245a2.10481,2.14283 0 0 0 0.60075,-0.39508l0.43302,0.11607l0.31682,-0.37276l-0.45166,-0.11607c0.16663,-0.34374 -0.06139,-0.56696 -0.37273,-0.64396c-0.48564,-0.11942 -0.94716,0.07812 -1.30454,0.26785l-0.0011,0z"/>
   <path stroke="null" id="svg_24" fill="#ffe300" d="m5.34092,5.37162c0.12059,-0.24888 0.03289,-0.43415 -0.14251,-0.54687l-0.48016,0.45535a0.36176,0.3683 0 0 1 -0.10634,0.18415a1.52927,1.5569 0 0 1 -0.39246,0.29017l-0.21596,0.20535l0.30695,0.23437l0.13045,-0.05469a1.79786,1.83033 0 0 0 0.26968,-0.14286l0.65227,-0.61941l-0.02193,-0.00558zm-1.68056,-0.37611c-0.29708,0.15625 -0.44289,0.21205 -0.53936,0.22209l-0.46481,0.44084c0.45166,0.10603 0.92085,-0.10379 1.3451,-0.34263a2.1377,2.17631 0 0 1 0.30914,-0.1462l0.49441,-0.46874c-0.42644,-0.04799 -0.82548,0.125 -1.14449,0.29464zm-0.58759,-0.0558c0.08112,-0.07254 0.17102,-0.13616 0.26749,-0.18973l0.22254,-0.21205l-0.23679,-0.17299l-0.06468,0.02567l-0.98882,0.93972c0.00877,0.10379 0.07235,0.19085 0.18636,0.25446l0.49441,-0.46874c0.00329,-0.04241 0.03727,-0.10044 0.11949,-0.17634zm1.13791,-1.01673l0.52839,-0.50222a6.31552,6.42959 0 0 0 -0.4111,-0.04129l-0.56347,0.53459c0.1469,-0.00223 0.29599,0.00112 0.44618,0.00893zm-0.03179,2.57809c-0.24556,0.01339 -0.49222,0.01116 -0.73778,-0.00781l-0.51634,0.48995c0.0285,0.00446 0.05481,0.01116 0.08332,0.01451a6.10614,6.21643 0 0 0 0.59198,0.05469l0.0011,0l0.57773,-0.55022l0,-0.00112zm-2.27363,-0.3895a2.31967,2.36157 0 0 1 -0.28503,-0.16294l-0.41987,0.39843a2.74064,2.79014 0 0 0 0.27735,0.17076l0.42754,-0.40624zm0.5854,0.78347l0.48454,-0.45981a4.22825,4.30462 0 0 1 -0.88468,-0.24107l-0.43631,0.41406c0.26858,0.12277 0.54813,0.21986 0.83644,0.28683zm3.29644,-2.62831c0.16444,0.07143 0.32011,0.16294 0.46262,0.2712l0.42206,-0.40178a2.58606,2.63277 0 0 0 -0.21267,-0.14509a3.39071,3.45196 0 0 0 -0.24008,-0.13281l-0.43192,0.40848zm-1.18067,-0.30915c0.27187,0.03348 0.54045,0.0904 0.80246,0.17076l0.44946,-0.42633a5.02742,5.11823 0 0 0 -0.88577,-0.24107l-0.50866,0.48325l0.14251,0.01339z"/>
   <path stroke="null" id="svg_25" fill="#FA8A00" d="m7.30979,4.23324l-0.53716,0l0,0.75892l0.53716,0l0,-0.75892zm-6.30017,0l-0.53716,0l0,0.75892l0.53716,0l0,-0.75892z"/>
   <path stroke="null" id="svg_26" fill="#FA8A00" d="m3.89167,6.84035c1.88775,0 3.41702,-0.827 3.41702,-1.84819c0,-1.02119 -1.52927,-1.84819 -3.41702,-1.84819s-3.41812,0.827 -3.41812,1.84819c0,1.02119 1.53037,1.84819 3.41812,1.84819z"/>
   <path stroke="null" id="svg_27" fill="#FFCA00" d="m3.89167,6.08254c1.88775,0 3.41702,-0.82811 3.41702,-1.8493c0,-1.02007 -1.52927,-1.84819 -3.41702,-1.84819s-3.41812,0.82811 -3.41812,1.84819c0,1.02119 1.53037,1.8493 3.41812,1.8493z"/>
   <path stroke="null" id="svg_28" fill="#FA8A00" d="m3.89167,5.5301c1.52489,0 2.76256,-0.58035 2.76256,-1.29686c0,-0.71762 -1.23767,-1.29909 -2.76256,-1.29909c-1.52599,0 -2.76256,0.58146 -2.76256,1.29909c0,0.71651 1.23657,1.29797 2.76256,1.29797l0,-0.00112z"/>
   <path stroke="null" id="svg_29" fill="#FFE700" d="m3.89167,5.53121c1.52489,0 2.76256,-0.56584 2.76256,-1.26337c0,-0.69753 -1.23767,-1.26226 -2.76256,-1.26226c-1.52599,0 -2.76256,0.56472 -2.76256,1.26226s1.23657,1.26337 2.76256,1.26337z"/>
   <path stroke="null" id="svg_30" fill="#FF9F00" d="m3.89167,5.43635c1.52599,0 2.76256,-0.54463 2.76256,-1.2165c0,-0.66963 -1.23657,-1.21427 -2.76256,-1.21427c-1.52599,0 -2.76256,0.54352 -2.76256,1.21538c0,0.67075 1.23657,1.21538 2.76256,1.21538z"/>
   <path stroke="null" id="svg_31" fill="#FFCA00" d="m3.66036,4.01784c-0.40561,0.2154 -0.53168,0.24218 -0.62925,0.2154c-0.09209,-0.02455 -0.13484,-0.11049 0.04166,-0.27009c0.13265,-0.1183 0.28503,-0.21205 0.45166,-0.27901l0.13155,-0.0558l-0.32888,-0.24107l-0.12497,0.05022a2.11577,2.15399 0 0 0 -0.47139,0.26227l-0.35957,-0.09152l-0.3793,0.31808l0.39356,0.10491c-0.21158,0.29017 -0.12936,0.54129 0.23021,0.64173c0.46481,0.12946 0.94936,-0.08928 1.38567,-0.33482c0.36834,-0.20535 0.51414,-0.20759 0.60842,-0.18303c0.14909,0.03795 0.15128,0.17299 0.00219,0.33147a1.62246,1.65176 0 0 1 -0.53826,0.36049l-0.16225,0.06696l0.39904,0.30245l0.12936,-0.05357c0.22144,-0.09598 0.42535,-0.22991 0.60075,-0.39397l0.43192,0.11495l0.31791,-0.37276l-0.45275,-0.11607c0.16773,-0.34374 -0.06029,-0.56696 -0.37273,-0.64396c-0.48454,-0.12165 -0.94497,0.07589 -1.30454,0.26785l0,-0.00112z"/>
   <path stroke="null" id="svg_32" fill="#ffe300" d="m5.34092,4.39284c0.12059,-0.24888 0.03289,-0.43415 -0.14251,-0.54687l-0.48016,0.45535a0.36176,0.3683 0 0 1 -0.10634,0.18415a1.52927,1.5569 0 0 1 -0.39246,0.29017l-0.21596,0.20535l0.30695,0.23437l0.13045,-0.05469c0.09318,-0.03906 0.18307,-0.08705 0.26968,-0.14174l0.65337,-0.61829l-0.02302,-0.00781zm-1.68056,-0.37499c-0.29708,0.15625 -0.44289,0.21317 -0.53936,0.22209l-0.46481,0.44084c0.45166,0.10714 0.92085,-0.10379 1.3451,-0.34263c0.09866,-0.0558 0.20281,-0.10603 0.30914,-0.1462l0.49441,-0.46874c-0.42644,-0.04799 -0.82548,0.125 -1.14449,0.29464zm-0.58759,-0.0558c0.08112,-0.07366 0.17102,-0.13839 0.26749,-0.19196l0.22254,-0.21205l-0.23679,-0.17299l-0.06468,0.02567l-0.98882,0.94083c0.00877,0.10379 0.07235,0.19196 0.18636,0.25558l0.49441,-0.46874c0.00329,-0.04353 0.03727,-0.10044 0.11949,-0.17634zm1.13791,-1.01673l0.52839,-0.50222a6.55231,6.67066 0 0 0 -0.4111,-0.04129l-0.56347,0.53459c0.1469,-0.00223 0.29599,0 0.44618,0.00893zm-0.03179,2.57809a5.91758,6.02446 0 0 1 -0.73778,-0.00893l-0.51634,0.49106c0.0285,0.00335 0.05481,0.00893 0.08332,0.01339a5.75643,5.8604 0 0 0 0.59198,0.05469l0.0011,0l0.57773,-0.55022zm-2.27363,-0.3895a2.32077,2.36269 0 0 1 -0.28503,-0.16294l-0.41987,0.39843c0.08989,0.0625 0.18198,0.1183 0.27735,0.17076l0.42754,-0.40624zm0.5854,0.78347l0.48454,-0.45981a4.22825,4.30462 0 0 1 -0.88468,-0.24107l-0.43631,0.41406c0.26858,0.12277 0.54813,0.21986 0.83644,0.28683zm3.29644,-2.62943c0.16444,0.07143 0.32011,0.16294 0.46262,0.2712l0.42206,-0.40178a3.27013,3.32919 0 0 0 -0.45275,-0.27901l-0.43192,0.40959zm-1.18067,-0.30915c0.27187,0.03348 0.54045,0.0904 0.80246,0.17076l0.44946,-0.42633a5.02633,5.11711 0 0 0 -0.88577,-0.24107l-0.50866,0.48437c0.04714,0.00335 0.09428,0.0067 0.14251,0.01228z"/>
   <path stroke="null" id="svg_33" fill="#FA8A00" d="m7.30979,3.25893l-0.53716,0l0,0.75892l0.53716,0l0,-0.75892zm-6.30017,0l-0.53716,0l0,0.75892l0.53716,0l0,-0.75892z"/>
   <path stroke="null" id="svg_34" fill="#FA8A00" d="m3.89167,5.86603c1.88775,0 3.41702,-0.827 3.41702,-1.84819c0,-1.02119 -1.52927,-1.84819 -3.41702,-1.84819s-3.41812,0.827 -3.41812,1.84819c0,1.02119 1.53037,1.84819 3.41812,1.84819z"/>
   <path stroke="null" id="svg_35" fill="#FFCA00" d="m3.89167,5.106c1.88775,0 3.41702,-0.82588 3.41702,-1.84819c0,-1.02007 -1.52927,-1.84819 -3.41702,-1.84819s-3.41812,0.82811 -3.41812,1.84819c0,1.02119 1.53037,1.8493 3.41812,1.8493l0,-0.00112z"/>
   <path stroke="null" id="svg_36" fill="#FA8A00" d="m3.89167,4.5569c1.52489,0 2.76256,-0.58146 2.76256,-1.29909c0,-0.71651 -1.23767,-1.29797 -2.76256,-1.29797c-1.52599,0 -2.76256,0.58146 -2.76256,1.29797c0,0.71762 1.23657,1.29909 2.76256,1.29909z"/>
   <path stroke="null" id="svg_37" fill="#FFE700" d="m3.89167,4.5569c1.52489,0 2.76256,-0.56584 2.76256,-1.26337c0,-0.69753 -1.23767,-1.26226 -2.76256,-1.26226c-1.52599,0 -2.76256,0.56472 -2.76256,1.26226s1.23657,1.26337 2.76256,1.26337z"/>
   <path stroke="null" id="svg_38" fill="#FF9F00" d="m3.89167,4.46203c1.52599,0 2.76256,-0.54463 2.76256,-1.2165c0,-0.66963 -1.23657,-1.21427 -2.76256,-1.21427c-1.52599,0 -2.76256,0.54352 -2.76256,1.21538c0,0.67075 1.23657,1.21538 2.76256,1.21538z"/>
   <path stroke="null" id="svg_39" fill="#FFCA00" d="m3.66036,3.04241c-0.40561,0.2154 -0.53168,0.24218 -0.62925,0.2154c-0.09209,-0.02455 -0.13484,-0.11049 0.04166,-0.27009c0.13265,-0.1183 0.28503,-0.21205 0.45166,-0.27901l0.13155,-0.0558l-0.32888,-0.24107l-0.12497,0.05022a2.11577,2.15399 0 0 0 -0.47139,0.26227l-0.35957,-0.09152l-0.3793,0.31808l0.39356,0.10491c-0.21158,0.29017 -0.12936,0.5424 0.23021,0.64173c0.46481,0.12946 0.94936,-0.08928 1.38567,-0.33482c0.36834,-0.20535 0.51414,-0.20759 0.60842,-0.18303c0.14909,0.03795 0.15128,0.17299 0.00219,0.33147c-0.15348,0.15402 -0.33655,0.27678 -0.53826,0.35937l-0.16115,0.06696l0.39794,0.30133l0.12936,-0.05245c0.22144,-0.09598 0.42535,-0.22991 0.60075,-0.39508l0.43302,0.11607l0.31682,-0.37276l-0.45166,-0.11607c0.16663,-0.34374 -0.06139,-0.56696 -0.37273,-0.64396c-0.48564,-0.11942 -0.94716,0.07812 -1.30454,0.26785l-0.0011,0z"/>
   <path stroke="null" id="svg_40" fill="#ffe300" d="m5.34092,3.41852c0.12059,-0.24888 0.03289,-0.43415 -0.14251,-0.54687l-0.48016,0.45535a0.36176,0.3683 0 0 1 -0.10634,0.18415a1.52927,1.5569 0 0 1 -0.39246,0.29017l-0.21596,0.20535l0.30695,0.23437l0.13045,-0.05469a1.85267,1.88613 0 0 0 0.26968,-0.14286l0.65227,-0.61941l-0.02193,-0.00558zm-1.68056,-0.37611c-0.29708,0.15625 -0.44289,0.21317 -0.53936,0.22321l-0.46481,0.44084c0.45166,0.10714 0.92085,-0.10379 1.3451,-0.34263c0.09866,-0.0558 0.20281,-0.10603 0.30914,-0.1462l0.49441,-0.46874c-0.42644,-0.04911 -0.82548,0.12388 -1.14449,0.29352zm-0.58759,-0.05469c0.08112,-0.07366 0.17102,-0.13839 0.26749,-0.19196l0.22254,-0.21205l-0.23679,-0.17299l-0.06468,0.02567l-0.98882,0.94083c0.00877,0.10379 0.07235,0.19196 0.18636,0.25558l0.49441,-0.46874c0.00329,-0.04353 0.03727,-0.10268 0.11949,-0.17634zm1.13791,-1.01784l0.52839,-0.50222a6.53587,6.65392 0 0 0 -0.4111,-0.04129l-0.56347,0.53459c0.1469,-0.00223 0.29599,0.00112 0.44618,0.00893zm-0.03179,2.5792a6.13683,6.24768 0 0 1 -0.73778,-0.00893l-0.51634,0.49106c0.0285,0.00335 0.05481,0.00893 0.08332,0.01339a6.10833,6.21866 0 0 0 0.59198,0.05469l0.0011,0l0.57773,-0.55022zm-2.27363,-0.39062a2.31967,2.36157 0 0 1 -0.28503,-0.16294l-0.41987,0.39843c0.0888,0.0625 0.18198,0.1183 0.27735,0.17076l0.42754,-0.40624zm0.5854,0.78347l0.48454,-0.45981a4.22825,4.30462 0 0 1 -0.88468,-0.24107l-0.43631,0.41406c0.26858,0.12277 0.54813,0.21986 0.83644,0.28683zm3.29644,-2.62831c0.16444,0.07143 0.32011,0.16294 0.46262,0.2712l0.42206,-0.40178a3.27013,3.32919 0 0 0 -0.45275,-0.27901l-0.43192,0.40959zm-1.18067,-0.30915c0.27187,0.03348 0.54045,0.0904 0.80246,0.17076l0.44946,-0.42633a5.02742,5.11823 0 0 0 -0.88577,-0.24107l-0.50866,0.48325l0.14251,0.01339z"/>
   <path stroke="null" id="svg_41" fill="#FA8A00" d="m7.30979,2.27568l-0.53716,0l0,0.75892l0.53716,0l0,-0.75892zm-6.30017,0l-0.53716,0l0,0.75892l0.53716,0l0,-0.75892z"/>
   <path stroke="null" id="svg_42" fill="#FA8A00" d="m3.89167,4.88279c1.88775,0 3.41702,-0.827 3.41702,-1.84819c0,-1.02119 -1.52927,-1.84819 -3.41702,-1.84819s-3.41812,0.827 -3.41812,1.84819c0,1.02119 1.53037,1.84819 3.41812,1.84819z"/>
   <path stroke="null" id="svg_43" fill="#FFCA00" d="m3.89167,4.12387c1.88775,0 3.41702,-0.82588 3.41702,-1.84819c0,-1.02007 -1.52927,-1.84819 -3.41702,-1.84819s-3.41812,0.82811 -3.41812,1.84819c0,1.02119 1.53037,1.8493 3.41812,1.8493l0,-0.00112z"/>
   <path stroke="null" id="svg_44" fill="#FA8A00" d="m3.89167,3.57477c1.52489,0 2.76256,-0.58035 2.76256,-1.29797s-1.23767,-1.3002 -2.76256,-1.3002c-1.52599,0 -2.76256,0.58146 -2.76256,1.29909c0,0.71651 1.23657,1.29797 2.76256,1.29797l0,0.00112z"/>
   <path stroke="null" id="svg_45" fill="#FFE700" d="m3.89167,3.57365c1.52489,0 2.76256,-0.56584 2.76256,-1.26337c0,-0.69753 -1.23767,-1.26226 -2.76256,-1.26226c-1.52599,0 -2.76256,0.56472 -2.76256,1.26226s1.23657,1.26337 2.76256,1.26337z"/>
   <path stroke="null" id="svg_46" fill="#FF9F00" d="m3.89167,3.47879c1.52599,0 2.76256,-0.54463 2.76256,-1.2165c0,-0.66963 -1.23657,-1.21427 -2.76256,-1.21427c-1.52599,0 -2.76256,0.54352 -2.76256,1.21538c0,0.67075 1.23657,1.21538 2.76256,1.21538z"/>
   <path stroke="null" id="svg_47" fill="#FFCA00" d="m3.66036,2.06028c-0.40561,0.2154 -0.53168,0.24218 -0.62925,0.2154c-0.09209,-0.02455 -0.13484,-0.11049 0.04166,-0.2712c0.13265,-0.11719 0.28503,-0.21205 0.45166,-0.2779l0.13155,-0.0558l-0.32888,-0.24107l-0.12497,0.05022a2.10481,2.14283 0 0 0 -0.47139,0.26227l-0.35957,-0.09152l-0.3793,0.31808l0.39356,0.10491c-0.21158,0.29017 -0.12936,0.54017 0.23021,0.64173c0.46481,0.12946 0.94936,-0.08928 1.38567,-0.33593c0.36834,-0.20424 0.51414,-0.20647 0.60842,-0.18192c0.14909,0.03795 0.15128,0.17299 0.00219,0.33035c-0.15348,0.15513 -0.33655,0.27678 -0.53826,0.35937l-0.16115,0.06696l0.39794,0.30245l0.12936,-0.05357c0.22144,-0.09598 0.42535,-0.22991 0.60075,-0.39397l0.43302,0.11495l0.31791,-0.37165l-0.45275,-0.11719c0.16773,-0.34374 -0.06029,-0.56584 -0.37273,-0.64285c-0.48564,-0.11942 -0.94716,0.07812 -1.30454,0.26785l-0.0011,0z"/>
   <path stroke="null" id="svg_48" fill="#ffe300" d="m5.34092,2.43528c0.12059,-0.24888 0.03289,-0.43303 -0.14251,-0.54687l-0.48016,0.45647a0.36067,0.36718 0 0 1 -0.10634,0.18415a1.53695,1.56471 0 0 1 -0.39246,0.28906l-0.21596,0.20535l0.30695,0.23437l0.13045,-0.05357c0.09318,-0.04018 0.18307,-0.08817 0.26968,-0.14286l0.65227,-0.61941l-0.02193,-0.0067zm-1.68056,-0.37499c-0.29708,0.15625 -0.44289,0.21205 -0.53936,0.22209l-0.46481,0.44084c0.45166,0.10714 0.92085,-0.10379 1.3451,-0.34374a2.19251,2.23211 0 0 1 0.30914,-0.14509l0.49441,-0.46874c-0.42644,-0.04799 -0.82548,0.125 -1.14449,0.29464zm-0.58759,-0.0558a1.41417,1.43971 0 0 1 0.26749,-0.19085l0.22254,-0.21205l-0.23679,-0.17299l-0.06468,0.02455l-0.98882,0.94083c0.00877,0.10491 0.07235,0.19196 0.18636,0.25558l0.49441,-0.46874c0.00329,-0.04464 0.03727,-0.10044 0.11949,-0.17634zm1.13791,-1.01449l0.52839,-0.50222a6.54573,6.66396 0 0 0 -0.4111,-0.04129l-0.56347,0.53459c0.1469,-0.00446 0.29599,0 0.44618,0.00893zm-0.03179,2.57585a5.91758,6.02446 0 0 1 -0.73778,-0.00893l-0.51634,0.49106c0.0285,0.00335 0.05481,0.00893 0.08332,0.01339a6.10833,6.21866 0 0 0 0.59198,0.0558l0.0011,0l0.57773,-0.55133zm-2.27363,-0.39062a2.31858,2.36046 0 0 1 -0.28503,-0.16294l-0.41987,0.39955c0.08989,0.06138 0.18198,0.1183 0.27735,0.16964l0.42754,-0.40624zm0.5854,0.78459l0.48454,-0.45981a4.24799,4.32471 0 0 1 -0.88468,-0.24107l-0.43631,0.41406c0.26858,0.12277 0.54813,0.21986 0.83644,0.28683zm3.29644,-2.62943c0.16444,0.07143 0.32011,0.16294 0.46262,0.2712l0.42206,-0.40178a2.58278,2.62943 0 0 0 -0.21267,-0.14509a3.3951,3.45642 0 0 0 -0.24008,-0.13281l-0.43192,0.40848zm-1.18067,-0.30915c0.27187,0.03348 0.54045,0.08928 0.80246,0.16964l0.44946,-0.4241a5.02742,5.11823 0 0 0 -0.88577,-0.24218l-0.50866,0.48214l0.14251,0.01451z"/>
   <path stroke="null" id="svg_49" fill="#FA8A00" d="m11.53695,8.43407l-0.53716,0l0,0.75892l0.53716,0l0,-0.75892zm-6.30017,0l-0.53716,0l0,0.75892l0.53716,0l0,-0.75892z"/>
   <path stroke="null" id="svg_50" fill="#FA8A00" d="m8.11883,11.04006c1.88775,0 3.41702,-0.827 3.41702,-1.84819c0,-1.02119 -1.52927,-1.8493 -3.41702,-1.8493s-3.41812,0.82811 -3.41812,1.8493s1.53037,1.84819 3.41812,1.84819z"/>
   <path stroke="null" id="svg_51" fill="#FFCA00" d="m8.11883,10.28226c1.88775,0 3.41702,-0.827 3.41702,-1.84819c0,-1.02119 -1.52927,-1.84819 -3.41702,-1.84819s-3.41812,0.827 -3.41812,1.84819c0,1.02119 1.53037,1.84819 3.41812,1.84819z"/>
   <path stroke="null" id="svg_52" fill="#FA8A00" d="m8.11883,9.73316c1.52489,0 2.76256,-0.58146 2.76256,-1.29909c0,-0.71651 -1.23767,-1.29797 -2.76256,-1.29797c-1.52599,0 -2.76256,0.58035 -2.76256,1.29797s1.23657,1.29909 2.76256,1.29909z"/>
   <path stroke="null" id="svg_53" fill="#FFE700" d="m8.11883,9.73204c1.52489,0 2.76256,-0.56584 2.76256,-1.26337c0,-0.69753 -1.23767,-1.26337 -2.76256,-1.26337c-1.52599,0 -2.76256,0.56584 -2.76256,1.26337c0,0.69753 1.23657,1.26337 2.76256,1.26337z"/>
   <path stroke="null" id="svg_54" fill="#FF9F00" d="m8.11883,9.63718c1.52599,0 2.76256,-0.54463 2.76256,-1.2165c0,-0.67075 -1.23657,-1.21538 -2.76256,-1.21538c-1.52599,0 -2.76256,0.54463 -2.76256,1.2165c0,0.66963 1.23657,1.21538 2.76256,1.21538z"/>
   <path stroke="null" id="svg_55" fill="#FFCA00" d="m7.88861,8.21756c-0.40561,0.21428 -0.53168,0.24107 -0.62925,0.2154c-0.09209,-0.02455 -0.13484,-0.11161 0.04166,-0.2712c0.13265,-0.1183 0.28503,-0.21205 0.45166,-0.27901l0.13155,-0.05469l-0.32888,-0.24107l-0.12497,0.05022a2.11577,2.15399 0 0 0 -0.47139,0.26227l-0.35957,-0.09263l-0.3793,0.31919l0.39246,0.10379c-0.21048,0.29017 -0.13045,0.54129 0.23241,0.64173c0.46372,0.12946 0.94826,-0.08928 1.38457,-0.33482c0.36834,-0.20424 0.51414,-0.20647 0.60842,-0.18192c0.14909,0.03795 0.15128,0.17299 0.00219,0.33035c-0.15348,0.15402 -0.33655,0.27678 -0.53826,0.35937l-0.16115,0.06696l0.39794,0.30133l0.12936,-0.05245c0.22144,-0.09598 0.42535,-0.22991 0.60075,-0.39508l0.43192,0.11607l0.31791,-0.37276l-0.45275,-0.11607c0.16773,-0.34374 -0.06029,-0.56696 -0.37273,-0.64396c-0.48564,-0.11942 -0.94716,0.07812 -1.30454,0.26897z"/>
   <path stroke="null" id="svg_56" fill="#ffe300" d="m9.56698,8.59367c0.12059,-0.24888 0.03289,-0.43415 -0.14251,-0.54687l-0.47906,0.45535a0.36067,0.36718 0 0 1 -0.10743,0.18415a1.52818,1.55578 0 0 1 -0.39136,0.29017l-0.21706,0.20535l0.30805,0.23326l0.12936,-0.05357a1.79786,1.83033 0 0 0 0.26968,-0.14286l0.65337,-0.61941l-0.02193,-0.00558l-0.0011,0zm-1.67837,-0.37611c-0.29708,0.15625 -0.44398,0.21205 -0.53936,0.22098l-0.46481,0.44196c0.45166,0.10603 0.92085,-0.10379 1.3451,-0.34374a2.19251,2.23211 0 0 1 0.30914,-0.14509l0.49441,-0.46874c-0.42754,-0.04799 -0.82658,0.125 -1.14449,0.29464zm-0.58869,-0.0558c0.08112,-0.07366 0.16992,-0.13727 0.26639,-0.18973l0.22364,-0.21205l-0.23789,-0.17299l-0.06249,0.02567l-0.98882,0.93972c0.00877,0.10379 0.07235,0.19085 0.18636,0.25446l0.49331,-0.46874c0.00329,-0.04241 0.03618,-0.10044 0.11949,-0.17634zm1.13791,-1.01673l0.52839,-0.50222a6.34622,6.46084 0 0 0 -0.4111,-0.04129l-0.56347,0.53571c0.1469,-0.00446 0.29599,0 0.44618,0.00781zm-0.03179,2.5792c-0.24666,0.01228 -0.49331,0.00893 -0.73778,-0.01004l-0.51634,0.49218c0.02741,0.00446 0.05481,0.01116 0.08222,0.01451a6.15328,6.26442 0 0 0 0.59198,0.05469l0.0011,0l0.57882,-0.55022l0,-0.00112zm-2.27363,-0.39062a2.31967,2.36157 0 0 1 -0.28503,-0.16294l-0.41987,0.39843a2.74064,2.79014 0 0 0 0.27735,0.17076l0.42754,-0.40624zm0.5865,0.78347l0.48454,-0.45981a4.2425,4.31913 0 0 1 -0.88577,-0.23995l-0.43521,0.41294c0.26858,0.12277 0.54813,0.21986 0.83644,0.28794l0,-0.00112zm3.29424,-2.62831c0.16444,0.07143 0.32011,0.16183 0.46372,0.27009l0.42206,-0.40066a2.38435,2.42742 0 0 0 -0.21377,-0.14509a3.40606,3.46758 0 0 0 -0.23898,-0.13281l-0.43302,0.40848zm-1.17957,-0.30915c0.27187,0.03348 0.54045,0.08928 0.80246,0.16964l0.44946,-0.42522a5.01536,5.10595 0 0 0 -0.88577,-0.24107l-0.50866,0.48214l0.14251,0.01451z"/>
   <path stroke="null" id="svg_57" fill="#FA8A00" d="m11.53695,7.45976l-0.53716,0l0,0.75892l0.53716,0l0,-0.75892zm-6.30017,0l-0.53716,0l0,0.75892l0.53716,0l0,-0.75892z"/>
   <path stroke="null" id="svg_58" fill="#FA8A00" d="m8.11883,10.06574c1.88775,0 3.41702,-0.82811 3.41702,-1.84819c0,-1.02119 -1.52927,-1.8493 -3.41702,-1.8493s-3.41812,0.82811 -3.41812,1.8493c0,1.02007 1.53037,1.84819 3.41812,1.84819z"/>
   <path stroke="null" id="svg_59" fill="#FFCA00" d="m8.11883,9.30794c1.88775,0 3.41702,-0.827 3.41702,-1.84819c0,-1.02119 -1.52927,-1.84819 -3.41702,-1.84819s-3.41812,0.827 -3.41812,1.84819c0,1.02119 1.53037,1.84819 3.41812,1.84819z"/>
   <path stroke="null" id="svg_60" fill="#FA8A00" d="m8.11883,8.75773c1.52489,0 2.76256,-0.58146 2.76256,-1.29909c0,-0.71651 -1.23767,-1.29797 -2.76256,-1.29797c-1.52599,0 -2.76256,0.58035 -2.76256,1.29797s1.23657,1.29909 2.76256,1.29909z"/>
   <path stroke="null" id="svg_61" fill="#FFE700" d="m8.11883,8.75773c1.52489,0 2.76256,-0.56584 2.76256,-1.26337c0,-0.69753 -1.23767,-1.26337 -2.76256,-1.26337c-1.52599,0 -2.76256,0.56584 -2.76256,1.26337c0,0.69753 1.23657,1.26337 2.76256,1.26337z"/>
   <path stroke="null" id="svg_62" fill="#FF9F00" d="m8.11883,8.66175c1.52599,0 2.76256,-0.54352 2.76256,-1.21538c0,-0.67075 -1.23657,-1.21538 -2.76256,-1.21538c-1.52599,0 -2.76256,0.54463 -2.76256,1.2165c0,0.66963 1.23657,1.21427 2.76256,1.21427z"/>
   <path stroke="null" id="svg_63" fill="#FFCA00" d="m7.88971,7.24324c-0.40671,0.21428 -0.53278,0.24107 -0.63035,0.2154c-0.09209,-0.02455 -0.13484,-0.11161 0.04166,-0.2712c0.13374,-0.1183 0.28612,-0.21205 0.45166,-0.27901l0.13155,-0.05469l-0.32888,-0.24107l-0.12497,0.05022a2.11577,2.15399 0 0 0 -0.47139,0.26227l-0.36067,-0.09263l-0.3804,0.31919l0.39356,0.10379c-0.21158,0.29017 -0.13155,0.54129 0.23131,0.64173c0.46481,0.12946 0.94936,-0.08928 1.38567,-0.33482c0.36834,-0.20424 0.51305,-0.20647 0.60732,-0.18192c0.14909,0.03795 0.15238,0.17299 0.00329,0.33035a1.62246,1.65176 0 0 1 -0.53936,0.35937l-0.16115,0.06696l0.39904,0.30133l0.12826,-0.05245a2.10481,2.14283 0 0 0 0.60184,-0.39508l0.43192,0.11607l0.31791,-0.37276l-0.44946,-0.11384c0.16663,-0.34374 -0.06139,-0.56696 -0.37273,-0.64396c-0.48783,-0.12165 -0.94826,0.07589 -1.30564,0.26674z"/>
   <path stroke="null" id="svg_64" fill="#ffe300" d="m9.56698,7.62047c0.12059,-0.24888 0.03289,-0.43415 -0.14251,-0.54687l-0.47906,0.45535a0.36067,0.36718 0 0 1 -0.10743,0.18415a1.52818,1.55578 0 0 1 -0.39136,0.29017l-0.21706,0.20535l0.30805,0.23326l0.12936,-0.05357a1.79786,1.83033 0 0 0 0.26968,-0.14286l0.65337,-0.61941l-0.02193,-0.00558l-0.0011,0zm-1.67837,-0.37723c-0.29599,0.15625 -0.44398,0.21205 -0.53936,0.22209l-0.46591,0.44196c0.45166,0.10603 0.92085,-0.10379 1.3451,-0.34374a2.19251,2.23211 0 0 1 0.30914,-0.14509l0.49441,-0.46874c-0.42644,-0.04911 -0.82548,0.12388 -1.14339,0.29352zm-0.58869,-0.0558c0.08112,-0.07366 0.16992,-0.13727 0.26639,-0.18973l0.22364,-0.21205l-0.23789,-0.17299l-0.06249,0.02567l-0.98882,0.93972c0.00877,0.10379 0.07235,0.19085 0.18636,0.25446l0.49222,-0.46763c0.00439,-0.04464 0.03727,-0.10268 0.12059,-0.17745zm1.13791,-1.01673l0.52839,-0.50222a6.34622,6.46084 0 0 0 -0.4111,-0.04129l-0.56347,0.53571c0.1469,-0.00446 0.29599,0 0.44618,0.00781zm-0.03179,2.5792c-0.24666,0.01228 -0.49331,0.00893 -0.73778,-0.01004l-0.51634,0.49106c0.02741,0.00446 0.05481,0.01116 0.08222,0.01451a6.15328,6.26442 0 0 0 0.59198,0.05469l0.0011,0l0.57882,-0.55022zm-2.27363,-0.39062a2.31858,2.36046 0 0 1 -0.28503,-0.16294l-0.41987,0.39843a2.74064,2.79014 0 0 0 0.27735,0.17076l0.42754,-0.40624zm0.5865,0.78459l0.48454,-0.46093a4.2425,4.31913 0 0 1 -0.88577,-0.23995l-0.43521,0.41294c0.26749,0.12277 0.54813,0.21986 0.83644,0.28794zm3.29424,-2.62943c0.16444,0.07143 0.32011,0.16183 0.46372,0.27009l0.42206,-0.40066a2.38435,2.42742 0 0 0 -0.21377,-0.14509a3.40168,3.46312 0 0 0 -0.23898,-0.13393l-0.43302,0.40959zm-1.17957,-0.30915c0.27187,0.03348 0.54045,0.08928 0.80246,0.16964l0.44946,-0.42522a5.01536,5.10595 0 0 0 -0.88577,-0.24218l-0.50866,0.48325l0.14251,0.01451z"/>
   <path stroke="null" id="svg_65" fill="#FA8A00" d="m11.53695,6.47651l-0.53716,0l0,0.75892l0.53716,0l0,-0.75892zm-6.30017,0l-0.53716,0l0,0.75892l0.53716,0l0,-0.75892z"/>
   <path stroke="null" id="svg_66" fill="#FA8A00" d="m8.11883,9.08362c1.88775,0 3.41702,-0.827 3.41702,-1.84819c0,-1.02119 -1.52927,-1.8493 -3.41702,-1.8493s-3.41812,0.82811 -3.41812,1.8493s1.53037,1.84819 3.41812,1.84819z"/>
   <path stroke="null" id="svg_67" fill="#FFCA00" d="m8.11883,8.3247c1.88775,0 3.41702,-0.827 3.41702,-1.84819c0,-1.02119 -1.52927,-1.84819 -3.41702,-1.84819s-3.41812,0.827 -3.41812,1.84819c0,1.02119 1.53037,1.84819 3.41812,1.84819z"/>
   <path stroke="null" id="svg_68" fill="#FA8A00" d="m8.11883,7.7756c1.52489,0 2.76256,-0.58146 2.76256,-1.29909c0,-0.71651 -1.23767,-1.29797 -2.76256,-1.29797c-1.52599,0 -2.76256,0.58035 -2.76256,1.29797s1.23657,1.29909 2.76256,1.29909z"/>
   <path stroke="null" id="svg_69" fill="#FFE700" d="m8.11883,7.7756c1.52489,0 2.76256,-0.56584 2.76256,-1.26337c0,-0.69753 -1.23767,-1.26337 -2.76256,-1.26337c-1.52599,0 -2.76256,0.56584 -2.76256,1.26337c0,0.69753 1.23657,1.26337 2.76256,1.26337z"/>
   <path stroke="null" id="svg_70" fill="#FF9F00" d="m8.11883,7.68073c1.52599,0 2.76256,-0.54463 2.76256,-1.2165c0,-0.67075 -1.23657,-1.21538 -2.76256,-1.21538c-1.52599,0 -2.76256,0.54463 -2.76256,1.2165c0,0.67075 1.23657,1.21538 2.76256,1.21538z"/>
   <path stroke="null" id="svg_71" fill="#FFCA00" d="m7.88971,6.26c-0.40671,0.21428 -0.53278,0.24107 -0.63035,0.2154c-0.09209,-0.02455 -0.13484,-0.11161 0.04166,-0.2712c0.13374,-0.11719 0.28612,-0.21205 0.45166,-0.27901l0.13155,-0.05469l-0.32888,-0.24107l-0.12497,0.05022a2.11577,2.15399 0 0 0 -0.47139,0.26227l-0.36067,-0.09152l-0.3804,0.31808l0.39356,0.10491c-0.21158,0.29017 -0.13155,0.54017 0.23131,0.64173c0.46481,0.12946 0.94936,-0.08928 1.38567,-0.33482c0.36834,-0.20535 0.51305,-0.20759 0.60732,-0.18303c0.14909,0.03795 0.15238,0.17299 0.00329,0.33147c-0.15348,0.15402 -0.33655,0.27567 -0.53936,0.35825l-0.16115,0.06696l0.39904,0.30245l0.12826,-0.05357a2.10481,2.14283 0 0 0 0.60184,-0.39397l0.43192,0.11719l0.31791,-0.37276l-0.45385,-0.1183c0.16663,-0.34374 -0.06029,-0.56696 -0.37273,-0.64285c-0.48454,-0.11942 -0.94497,0.07812 -1.30235,0.26785l0.0011,0z"/>
   <path stroke="null" id="svg_72" fill="#ffe300" d="m9.56698,6.63499c0.12059,-0.24776 0.03289,-0.43303 -0.14251,-0.54575l-0.47906,0.45535a0.36176,0.3683 0 0 1 -0.10743,0.18415a1.53476,1.56248 0 0 1 -0.39136,0.29017l-0.21706,0.20535l0.30805,0.23326l0.12936,-0.05357a1.84171,1.87497 0 0 0 0.26968,-0.14286l0.65337,-0.61941l-0.02193,-0.00558l-0.0011,-0.00112zm-1.67837,-0.37499c-0.29708,0.15625 -0.44398,0.21205 -0.53936,0.22209l-0.46481,0.44084c0.45166,0.10603 0.92085,-0.10379 1.3451,-0.34263c0.09866,-0.05692 0.20281,-0.10603 0.30914,-0.14732l0.49441,-0.46874c-0.42754,-0.04687 -0.82658,0.125 -1.14449,0.29575zm-0.58869,-0.05469c0.08112,-0.07366 0.16992,-0.13839 0.26639,-0.19196l0.22364,-0.21205l-0.23789,-0.17299l-0.06249,0.02567l-0.98882,0.94083c0.00877,0.10379 0.07235,0.19085 0.18636,0.25446l0.49331,-0.46874c0.00329,-0.04241 0.03618,-0.10044 0.11949,-0.17522zm1.13791,-1.01784l0.52839,-0.49999a6.34622,6.46084 0 0 0 -0.4111,-0.04241l-0.56347,0.53571c0.1469,-0.00446 0.29599,0 0.44618,0.0067zm-0.03179,2.5792c-0.24666,0.01228 -0.49331,0.00893 -0.73778,-0.01004l-0.51634,0.49106c0.02741,0.00446 0.05481,0.01116 0.08222,0.01451a6.14999,6.26107 0 0 0 0.59198,0.05469l0.0011,0l0.57882,-0.55022zm-2.27363,-0.3895a2.31639,2.35822 0 0 1 -0.28503,-0.16294l-0.41987,0.39843c0.0888,0.06138 0.18198,0.1183 0.27735,0.16964l0.42754,-0.40513zm0.5865,0.78459l0.48454,-0.46093a4.22277,4.29904 0 0 1 -0.88577,-0.23995l-0.43521,0.41406c0.26858,0.12277 0.54813,0.21986 0.83644,0.28683zm3.29424,-2.62943c0.16444,0.07143 0.32011,0.16183 0.46372,0.27009l0.42206,-0.40178a3.28109,3.34035 0 0 0 -0.45275,-0.27901l-0.43302,0.41071zm-1.17957,-0.31026c0.27187,0.03348 0.54045,0.0904 0.80246,0.16964l0.44946,-0.42522a5.04277,5.13385 0 0 0 -0.88577,-0.24107l-0.50866,0.48214l0.14251,0.01451z"/>
   <path stroke="null" id="svg_73" fill="#FA8A00" d="m5.71364,6.15286l-0.38807,0.36718l0.53168,0.5491l0.38807,-0.36718l-0.53168,-0.5491zm-4.55494,4.30016l-0.38807,0.36718l0.53168,0.54798l0.38807,-0.36607l-0.53168,-0.5491z"/>
   <path stroke="null" id="svg_74" fill="#FA8A00" d="m5.06576,10.37154c1.36484,-1.28793 1.89104,-2.93076 1.17738,-3.66847c-0.71476,-0.73771 -2.3997,-0.29241 -3.76454,0.99664c-1.36374,1.28793 -1.89104,2.93076 -1.17628,3.66736c0.71366,0.73771 2.3986,0.29129 3.76344,-0.99664l0,0.00112z"/>
   <path stroke="null" id="svg_75" fill="#FFCA00" d="m4.53517,9.82356c1.36484,-1.28793 1.89104,-2.93188 1.17738,-3.66847c-0.71476,-0.73883 -2.3997,-0.29241 -3.76344,0.99552c-1.36484,1.28904 -1.89214,2.93076 -1.17738,3.66959c0.71366,0.7366 2.3997,0.29129 3.76344,-0.99664z"/>
   <path stroke="null" id="svg_76" fill="#FA8A00" d="m4.15038,9.42513c1.10283,-1.04128 1.58957,-2.30577 1.08858,-2.82362c-0.50208,-0.51897 -1.80224,-0.09486 -2.90507,0.94641c-1.10283,1.04128 -1.58957,2.30577 -1.08858,2.82362c0.50099,0.51897 1.80224,0.09486 2.90507,-0.94641z"/>
   <path stroke="null" id="svg_77" fill="#FFE700" d="m4.14929,9.42513c1.10393,-1.04016 1.60163,-2.29349 1.11379,-2.79795c-0.48783,-0.50446 -1.77812,-0.06808 -2.88096,0.9732s-1.59944,2.29349 -1.1127,2.79795c0.48783,0.50446 1.77703,0.0692 2.87986,-0.97208l0,-0.00112z"/>
   <path stroke="null" id="svg_78" fill="#FF9F00" d="m4.08351,9.35817c1.10283,-1.0424 1.61698,-2.2801 1.14668,-2.76558c-0.4692,-0.48548 -1.74414,-0.03348 -2.84697,1.0078c-1.10393,1.04128 -1.61698,2.27898 -1.14778,2.76447c0.47029,0.48437 1.74524,0.03348 2.84807,-1.0078l0,0.00112z"/>
   <path stroke="null" id="svg_79" fill="#FFCA00" d="m3.25803,8.17068c0.44508,-0.1183 0.5558,-0.18415 0.60842,-0.26897c0.04933,-0.08036 0.02193,-0.17187 -0.21925,-0.16964a1.57641,1.60489 0 0 0 -0.52182,0.10268l-0.13374,0.04911l0.07345,-0.39955l0.12497,-0.04687a2.10481,2.14283 0 0 1 0.5262,-0.12723l0.19733,-0.31026l0.4977,-0.02455l-0.21377,0.34263c0.35519,0.06808 0.47029,0.30468 0.27626,0.62387c-0.24885,0.40848 -0.75313,0.577 -1.24206,0.69195c-0.41,0.10044 -0.51634,0.19754 -0.57005,0.27901c-0.08112,0.12723 0.01096,0.22879 0.22692,0.2433c0.21925,0.00893 0.43631,-0.02567 0.64131,-0.10268l0.16444,-0.05915l-0.08112,0.48883l-0.13155,0.04911a2.15852,2.19751 0 0 1 -0.71037,0.11942l-0.23569,0.37611l-0.48893,-0.05692l0.24775,-0.39062c-0.35957,-0.13727 -0.34861,-0.45312 -0.1743,-0.72097c0.27187,-0.4174 0.74436,-0.58481 1.13791,-0.68861z"/>
   <path stroke="null" id="svg_80" fill="#ffe300" d="m2.57068,7.33364l0.03289,-0.7232a6.12148,6.23205 0 0 0 -0.32778,0.25111l-0.03289,0.77008c0.10305,-0.10044 0.21377,-0.20089 0.32888,-0.29799l-0.0011,0zm1.78032,1.88725a5.74985,5.85371 0 0 1 -0.54045,0.49664l-0.03289,0.70758l0.07126,-0.04576c0.08222,-0.05803 0.16115,-0.11942 0.24118,-0.1808c0.08112,-0.06138 0.15019,-0.12053 0.22364,-0.18303l0.03727,-0.79463zm-1.91516,1.26895c-0.10524,0.03348 -0.21158,0.05803 -0.32011,0.07701l-0.02521,0.57365c0.10743,-0.01674 0.21487,-0.03906 0.32011,-0.06696l0.02521,-0.5837zm0.97019,0.16741l0.0285,-0.66405c-0.25214,0.17299 -0.52182,0.31696 -0.80684,0.4308l-0.02521,0.59597c0.27954,-0.09375 0.54813,-0.2154 0.80355,-0.36272zm0.54265,-4.14949c0.16882,-0.06027 0.34532,-0.10044 0.52401,-0.12053l0.02412,-0.57812a3.37208,3.43298 0 0 0 -0.52182,0.10826l-0.02631,0.59151l0,-0.00112zm-1.06885,0.58146c0.21925,-0.16183 0.45385,-0.30357 0.69831,-0.4241l0.02631,-0.61383a4.99344,5.08363 0 0 0 -0.80794,0.42857l-0.0296,0.69642c0.03727,-0.02902 0.07455,-0.05915 0.11291,-0.08705zm0.65227,1.96314l0.16444,-0.05915l-0.08112,0.48883l-0.13155,0.04911l-0.05043,0.01562l0.02193,-0.47098l0.07674,-0.02232l0,-0.00112zm0.1162,-1.32029c-0.04604,0 -0.0877,0.00558 -0.12826,0.01004l0.01864,-0.40178c0.0592,-0.01116 0.1173,-0.02455 0.17759,-0.03237l0.19733,-0.30915l0.00548,0l-0.03837,0.80802c-0.02083,-0.04353 -0.0877,-0.07589 -0.23241,-0.07478zm-0.94716,0.63838l-0.02521,0.52566l-0.01206,0.01674c-0.04166,0.06362 -0.03837,0.12277 0.00329,0.16518l-0.03837,0.80356l-0.09209,0.14509l-0.10414,-0.01116l0.07235,-1.53458a1.69919,1.72989 0 0 1 0.19513,-0.11049l0.0011,0zm1.17518,-0.48883l-0.02631,0.5558c-0.12059,0.05245 -0.24337,0.09598 -0.36944,0.13169l0.02193,-0.46874c0.24446,-0.07812 0.3234,-0.13281 0.36505,-0.19977a0.17979,0.18303 0 0 0 0.00877,-0.01897zm-1.73537,1.60712c-0.19404,-0.1596 -0.16444,-0.41071 -0.01973,-0.63057c0.01644,-0.02455 0.03508,-0.04464 0.05262,-0.0692l-0.03289,0.69977zm2.27692,-2.09037c0.17321,0.11049 0.20281,0.30357 0.05701,0.5424a1.03377,1.05244 0 0 1 -0.0877,0.1183l0.0307,-0.6607zm-2.30104,2.58032l-0.07016,-0.00781l0.07674,-0.12053l-0.00658,0.12835z"/>
  </g>
 </g>
</svg>