
<svg version="1.0" xmlns="http://www.w3.org/2000/svg"
 width="1024.000000pt" height="1024.000000pt" viewBox="0 0 1024.000000 1024.000000"
 preserveAspectRatio="xMidYMid meet">
<metadata>
Created by potrace 1.16, written by Peter Selinger 2001-2019
</metadata>
<g transform="translate(0.000000,1024.000000) scale(0.100000,-0.100000)"
fill="#000000" stroke="none">
<path d="M629 10216 c-294 -122 -513 -351 -608 -633 l-21 -62 0 -4371 0 -4371
21 -61 c26 -78 111 -247 162 -323 99 -147 281 -297 439 -363 l77 -32 4441 0
4441 0 77 32 c201 84 404 274 504 473 14 28 38 84 52 125 l26 75 -2 4390 -3
4390 -36 87 c-75 183 -211 370 -349 481 -53 43 -128 90 -200 125 l-115 57
-4425 2 -4425 2 -56 -23z m6581 -2651 l-565 -565 -75 0 -75 0 565 565 565 565
75 0 75 0 -565 -565z m232 -2382 l3 -1288 98 -3 97 -3 0 -29 0 -30 -515 0
-515 0 0 30 0 30 95 0 95 0 0 1260 0 1260 -105 0 -105 0 0 30 0 30 425 0 425
0 2 -1287z m-5354 1075 l3 -38 -185 0 -186 0 0 -1155 0 -1155 103 0 c256 1
431 92 596 311 55 72 167 267 223 384 21 46 26 50 58 50 35 0 35 -1 33 -40 -5
-98 -54 -723 -59 -752 l-5 -33 -914 0 -915 0 0 40 0 40 100 0 100 0 0 1155 0
1155 -100 0 -100 0 0 40 0 40 623 -2 622 -3 3 -37z m1920 -733 c264 -43 439
-161 543 -366 118 -235 116 -717 -6 -964 -95 -191 -262 -319 -484 -369 -174
-40 -434 -38 -601 3 -373 93 -570 382 -570 838 0 310 103 554 295 700 106 81
253 140 403 162 96 14 320 12 420 -4z m1933 -9 c158 -36 301 -114 382 -207
133 -154 186 -329 187 -615 0 -304 -62 -506 -203 -660 -151 -165 -355 -236
-672 -236 -359 0 -593 108 -744 342 -88 136 -125 289 -124 520 0 175 11 248
57 382 88 251 308 427 606 482 107 20 411 15 511 -8z m2874 9 c358 -63 544
-305 545 -712 l0 -73 -487 -2 -488 -3 2 -160 c5 -406 81 -588 271 -650 41 -14
76 -17 162 -13 101 4 115 7 183 41 123 61 234 199 277 345 13 42 25 49 62 34
16 -6 15 -12 -6 -72 -64 -185 -166 -310 -309 -380 -103 -50 -173 -68 -309 -79
-390 -32 -692 85 -860 332 -91 135 -128 268 -135 489 -3 98 -1 182 6 224 18
103 66 242 108 313 48 80 171 206 245 249 105 62 246 109 373 125 80 10 280 6
360 -8z m-5500 -2855 l-630 -630 -75 0 -75 0 630 630 630 630 75 0 75 0 -630
-630z"/>
<path d="M3713 5470 c-41 -13 -98 -80 -117 -139 -36 -109 -41 -188 -41 -671 0
-410 3 -488 18 -570 19 -102 51 -167 100 -204 38 -28 149 -30 189 -4 44 29 76
95 94 198 25 140 26 1007 1 1153 -19 110 -52 185 -96 216 -34 25 -103 34 -148
21z"/>
<path d="M5587 5466 c-51 -19 -72 -39 -102 -100 -49 -101 -57 -208 -52 -756 4
-539 7 -572 63 -668 47 -79 172 -107 242 -55 99 73 116 210 109 863 -4 327 -9
454 -20 511 -24 122 -68 189 -138 209 -43 13 -56 12 -102 -4z"/>
<path d="M8480 5432 c-65 -65 -89 -189 -90 -454 l0 -168 175 0 175 0 0 183 c0
375 -36 477 -167 477 -51 0 -59 -3 -93 -38z"/>
</g>
</svg>
