<svg viewBox="0 0 11 12" xmlns="http://www.w3.org/2000/svg" class="pm"><title>Coins</title><path d="M7.144 7.038h-.49v.68h.49v-.68zm-5.747 0h-.49v.68h.49v-.68z" fill="#FA8A00"></path><path d="M4.026 9.374c1.722 0 3.117-.741 3.117-1.656 0-.915-1.395-1.656-3.117-1.656S.908 6.803.908 7.718c0 .915 1.396 1.656 3.118 1.656z" fill="#FA8A00"></path><path d="M4.026 8.695c1.722 0 3.117-.742 3.117-1.657S5.748 5.382 4.026 5.382.908 6.123.908 7.038c0 .915 1.396 1.657 3.118 1.657z" fill="#FFCA00"></path><path d="M4.026 8.202c1.391 0 2.52-.521 2.52-1.164 0-.642-1.129-1.163-2.52-1.163-1.392 0-2.52.52-2.52 1.163s1.128 1.164 2.52 1.164z" fill="#FA8A00"></path><path d="M4.026 8.202c1.391 0 2.52-.507 2.52-1.132 0-.625-1.129-1.132-2.52-1.132-1.392 0-2.52.507-2.52 1.132 0 .625 1.128 1.132 2.52 1.132z" fill="#FFE700"></path><path d="M4.026 8.117c1.392 0 2.52-.488 2.52-1.09 0-.6-1.128-1.089-2.52-1.089-1.392 0-2.52.488-2.52 1.09 0 .601 1.128 1.089 2.52 1.089z" fill="#FF9F00"></path><path d="M3.815 6.845c-.37.192-.485.216-.574.193-.084-.022-.123-.1.038-.243.121-.105.26-.19.412-.25l.12-.049-.3-.216-.114.045a1.92 1.92 0 00-.43.235l-.328-.083-.346.286.359.094c-.193.26-.118.484.21.574.424.116.866-.08 1.264-.3.336-.183.469-.185.555-.163.136.034.138.155.002.296-.14.139-.307.248-.491.322l-.148.06.364.27.118-.047c.202-.086.388-.206.548-.354l.394.104.29-.333-.412-.104c.153-.308-.055-.508-.34-.577-.443-.108-.864.07-1.19.24z" fill="#FFCA00"></path><path d="M5.348 7.182c.11-.223.03-.389-.13-.49l-.438.409a.329.329 0 01-.097.164 1.402 1.402 0 01-.358.26l-.197.184.28.209.119-.048c.085-.036.167-.078.246-.127l.596-.557-.021-.004zm-1.533-.337c-.271.14-.404.19-.492.199l-.424.395c.412.095.84-.093 1.227-.308a2 2 0 01.282-.13l.451-.42c-.389-.043-.753.112-1.044.264zm-.536-.05c.074-.066.156-.123.244-.17l.203-.19-.216-.156-.059.023-.902.843c.008.093.066.171.17.228l.451-.42c.003-.038.034-.09.109-.158zM4.317 5.884l.482-.45a5.971 5.971 0 00-.375-.038l-.514.48c.134-.003.27 0 .407.008zm-.029 2.31a5.598 5.598 0 01-.673-.008l-.471.44c.026.003.05.008.076.012a5.572 5.572 0 00.54.049h.001l.527-.493zm-2.074-.349a2.116 2.116 0 01-.26-.146l-.383.358c.082.055.166.106.253.152l.39-.364zm.534.702l.442-.413a3.875 3.875 0 01-.807-.215l-.398.37c.245.11.5.197.763.258zm3.007-2.356c.15.064.292.146.422.242l.385-.359a2.356 2.356 0 00-.194-.13 3.093 3.093 0 00-.219-.119l-.394.366zm-1.077-.277c.248.03.493.081.732.153l.41-.382a4.586 4.586 0 00-.808-.216l-.464.431.13.014z" fill="#ffe300"></path><path d="M7.144 6.165h-.49v.68h.49v-.68zm-5.747 0h-.49v.68h.49v-.68z" fill="#FA8A00"></path><path d="M4.026 8.501c1.722 0 3.117-.741 3.117-1.656 0-.915-1.395-1.657-3.117-1.657S.908 5.93.908 6.845 2.304 8.5 4.026 8.5z" fill="#FA8A00"></path><path d="M4.026 7.822c1.722 0 3.117-.742 3.117-1.657S5.748 4.51 4.026 4.51.908 5.25.908 6.165s1.396 1.657 3.118 1.657z" fill="#FFCA00"></path><path d="M4.026 7.329c1.391 0 2.52-.521 2.52-1.164 0-.642-1.129-1.163-2.52-1.163-1.392 0-2.52.52-2.52 1.163S2.634 7.33 4.026 7.33z" fill="#FA8A00"></path><path d="M4.026 7.328c1.391 0 2.52-.507 2.52-1.132 0-.625-1.129-1.132-2.52-1.132-1.392 0-2.52.507-2.52 1.132 0 .625 1.128 1.132 2.52 1.132z" fill="#FFE700"></path><path d="M4.026 7.243c1.392 0 2.52-.488 2.52-1.09 0-.6-1.128-1.089-2.52-1.089-1.392 0-2.52.488-2.52 1.09 0 .601 1.128 1.089 2.52 1.089z" fill="#FF9F00"></path><path d="M3.815 5.972c-.37.192-.485.216-.574.193-.084-.022-.123-.1.038-.243.121-.105.26-.19.412-.25l.12-.049-.3-.216-.114.045a1.93 1.93 0 00-.43.235l-.328-.083-.346.286.359.094c-.193.26-.118.484.21.574.424.116.866-.08 1.264-.3.336-.183.469-.185.555-.164.136.035.138.156.002.297-.14.139-.307.248-.491.322l-.147.06.363.27.118-.047c.203-.086.389-.205.55-.353l.394.104.29-.334-.413-.104C5.5 6 5.292 5.8 5.007 5.732c-.444-.108-.864.07-1.192.24z" fill="#FFCA00"></path><path d="M5.348 6.309c.11-.223.03-.389-.13-.49l-.438.409a.329.329 0 01-.097.164 1.402 1.402 0 01-.358.26l-.197.184.28.209.119-.048a1.69 1.69 0 00.246-.127l.595-.556-.02-.005zm-1.533-.337c-.271.14-.404.19-.492.199l-.424.395c.412.095.84-.093 1.227-.308a2 2 0 01.282-.13l.451-.42c-.389-.043-.753.112-1.044.264zm-.536-.05a1.29 1.29 0 01.244-.17l.203-.19-.216-.155-.059.023-.902.842c.008.093.066.171.17.229l.451-.42c.003-.04.034-.091.109-.159zM4.317 5.01l.482-.449a5.971 5.971 0 00-.375-.038l-.514.48c.134-.003.27 0 .407.008zm-.029 2.311a5.42 5.42 0 01-.673-.008l-.471.44c.026.003.05.008.076.012a5.572 5.572 0 00.54.05h.001l.527-.494zm-2.074-.35a2.115 2.115 0 01-.26-.146l-.383.358c.082.055.166.106.253.152l.39-.364zm.534.703l.442-.413a3.876 3.876 0 01-.807-.215l-.398.37c.245.11.5.197.763.258zm3.007-2.356c.15.064.292.146.422.242l.385-.359a2.356 2.356 0 00-.194-.13 3.093 3.093 0 00-.219-.119l-.394.366zm-1.077-.277c.248.03.493.08.732.153l.41-.382a4.585 4.585 0 00-.808-.216l-.464.432.13.013z" fill="#ffe300"></path><path d="M7.144 5.284h-.49v.68h.49v-.68zm-5.747 0h-.49v.68h.49v-.68z" fill="#FA8A00"></path><path d="M4.026 7.62c1.722 0 3.117-.741 3.117-1.656 0-.915-1.395-1.656-3.117-1.656S.908 5.049.908 5.964c0 .915 1.396 1.656 3.118 1.656z" fill="#FA8A00"></path><path d="M4.026 6.94c1.722 0 3.117-.74 3.117-1.656 0-.914-1.395-1.656-3.117-1.656S.908 4.37.908 5.284c0 .915 1.396 1.657 3.118 1.657z" fill="#FFCA00"></path><path d="M4.026 6.448c1.391 0 2.52-.521 2.52-1.164 0-.642-1.129-1.163-2.52-1.163-1.392 0-2.52.521-2.52 1.163 0 .643 1.128 1.164 2.52 1.164z" fill="#FA8A00"></path><path d="M4.026 6.448c1.391 0 2.52-.507 2.52-1.132 0-.625-1.129-1.131-2.52-1.131-1.392 0-2.52.506-2.52 1.131s1.128 1.132 2.52 1.132z" fill="#FFE700"></path><path d="M4.026 6.363c1.392 0 2.52-.488 2.52-1.09 0-.6-1.128-1.088-2.52-1.088-1.392 0-2.52.487-2.52 1.089 0 .601 1.128 1.089 2.52 1.089z" fill="#FF9F00"></path><path d="M3.815 5.091c-.37.193-.485.217-.574.193-.084-.022-.123-.099.038-.242a1.42 1.42 0 01.412-.25l.12-.05-.3-.216-.114.045a1.97 1.97 0 00-.43.235l-.328-.082-.346.285.359.094c-.193.26-.118.484.21.575.424.116.866-.08 1.264-.3.336-.184.469-.186.555-.164.136.034.138.155.002.297-.14.138-.307.248-.491.322l-.147.06.363.27.118-.047a1.92 1.92 0 00.548-.354l.395.104.289-.334-.412-.104c.152-.308-.056-.508-.34-.577-.443-.107-.864.07-1.19.24z" fill="#FFCA00"></path><path d="M5.348 5.428c.11-.223.03-.389-.13-.49l-.438.408a.33.33 0 01-.097.165 1.395 1.395 0 01-.358.26l-.197.184.28.21.119-.049a1.64 1.64 0 00.246-.128l.595-.555-.02-.005zm-1.533-.337c-.271.14-.404.19-.492.199l-.424.395c.412.095.84-.093 1.227-.307a1.95 1.95 0 01.282-.131l.451-.42c-.389-.043-.753.112-1.044.264zm-.536-.05c.074-.065.156-.122.244-.17l.203-.19-.216-.155-.059.023-.902.842c.008.093.066.171.17.228l.451-.42c.003-.038.034-.09.109-.158zM4.317 4.13l.482-.45a5.761 5.761 0 00-.375-.037l-.514.479c.134-.002.27.001.407.008zm-.029 2.31c-.224.012-.449.01-.673-.007l-.471.439c.026.004.05.01.076.013a5.57 5.57 0 00.54.049h.001l.527-.493zm-2.074-.349a2.116 2.116 0 01-.26-.146l-.383.357a2.5 2.5 0 00.253.153l.39-.364zm.534.702l.442-.412a3.857 3.857 0 01-.807-.216l-.398.371c.245.11.5.197.763.257zm3.007-2.355c.15.064.292.146.422.243l.385-.36a2.359 2.359 0 00-.194-.13 3.093 3.093 0 00-.219-.119l-.394.366zm-1.077-.277c.248.03.493.081.732.153l.41-.382a4.586 4.586 0 00-.808-.216l-.464.433.13.012z" fill="#ffe300"></path><path d="M7.144 4.408h-.49v.68h.49v-.68zm-5.747 0h-.49v.68h.49v-.68z" fill="#FA8A00"></path><path d="M4.026 6.744c1.722 0 3.117-.741 3.117-1.656 0-.915-1.395-1.656-3.117-1.656S.908 4.173.908 5.088c0 .915 1.396 1.656 3.118 1.656z" fill="#FA8A00"></path><path d="M4.026 6.065c1.722 0 3.117-.742 3.117-1.657 0-.914-1.395-1.656-3.117-1.656S.908 3.494.908 4.408c0 .915 1.396 1.657 3.118 1.657z" fill="#FFCA00"></path><path d="M4.026 5.57c1.391 0 2.52-.52 2.52-1.162 0-.643-1.129-1.164-2.52-1.164-1.392 0-2.52.521-2.52 1.164 0 .642 1.128 1.163 2.52 1.163z" fill="#FA8A00"></path><path d="M4.026 5.571c1.391 0 2.52-.507 2.52-1.132 0-.625-1.129-1.131-2.52-1.131-1.392 0-2.52.506-2.52 1.131s1.128 1.132 2.52 1.132z" fill="#FFE700"></path><path d="M4.026 5.486c1.392 0 2.52-.488 2.52-1.09 0-.6-1.128-1.088-2.52-1.088-1.392 0-2.52.487-2.52 1.089 0 .601 1.128 1.089 2.52 1.089z" fill="#FF9F00"></path><path d="M3.815 4.215c-.37.193-.485.217-.574.193-.084-.022-.123-.099.038-.242.121-.106.26-.19.412-.25l.12-.05-.3-.216-.114.045a1.93 1.93 0 00-.43.235l-.328-.082-.346.285.359.094c-.193.26-.118.485.21.575.424.116.866-.08 1.264-.3.336-.184.469-.186.555-.164.136.034.138.155.002.297a1.48 1.48 0 01-.491.323l-.148.06.364.271.118-.048c.202-.086.388-.206.548-.353l.394.103.29-.334-.413-.104c.153-.308-.055-.508-.34-.577-.442-.109-.862.068-1.19.24z" fill="#FFCA00"></path><path d="M5.348 4.551c.11-.223.03-.389-.13-.49l-.438.408a.33.33 0 01-.097.165 1.395 1.395 0 01-.358.26l-.197.184.28.21.119-.049c.085-.035.167-.078.246-.127l.596-.554-.021-.007zm-1.533-.336c-.271.14-.404.191-.492.199l-.424.395c.412.096.84-.093 1.227-.307.09-.05.185-.095.282-.131l.451-.42c-.389-.043-.753.112-1.044.264zm-.536-.05c.074-.066.156-.124.244-.172l.203-.19-.216-.155-.059.023-.902.843c.008.093.066.172.17.229l.451-.42c.003-.039.034-.09.109-.158zM4.317 3.254l.482-.45a5.977 5.977 0 00-.375-.037l-.514.479c.134-.002.27 0 .407.008zm-.029 2.31a5.398 5.398 0 01-.673-.008l-.471.44c.026.003.05.008.076.012a5.251 5.251 0 00.54.049h.001l.527-.493zm-2.074-.349a2.117 2.117 0 01-.26-.146l-.383.357c.082.056.166.106.253.153l.39-.364zm.534.702l.442-.412a3.857 3.857 0 01-.807-.216l-.398.371c.245.11.5.197.763.257zm3.007-2.356c.15.064.292.146.422.243l.385-.36a2.983 2.983 0 00-.413-.25l-.394.367zm-1.077-.277c.248.03.493.081.732.153l.41-.382a4.585 4.585 0 00-.808-.216l-.464.434c.043.003.086.006.13.011z" fill="#ffe300"></path><path d="M7.144 3.535h-.49v.68h.49v-.68zm-5.747 0h-.49v.68h.49v-.68z" fill="#FA8A00"></path><path d="M4.026 5.871c1.722 0 3.117-.741 3.117-1.656 0-.915-1.395-1.656-3.117-1.656S.908 3.3.908 4.215c0 .915 1.396 1.656 3.118 1.656z" fill="#FA8A00"></path><path d="M4.026 5.19c1.722 0 3.117-.74 3.117-1.656 0-.914-1.395-1.656-3.117-1.656S.908 2.62.908 3.534c0 .915 1.396 1.657 3.118 1.657z" fill="#FFCA00"></path><path d="M4.026 4.698c1.391 0 2.52-.521 2.52-1.164 0-.642-1.129-1.163-2.52-1.163-1.392 0-2.52.521-2.52 1.163 0 .643 1.128 1.164 2.52 1.164z" fill="#FA8A00"></path><path d="M4.026 4.698c1.391 0 2.52-.507 2.52-1.132 0-.625-1.129-1.131-2.52-1.131-1.392 0-2.52.506-2.52 1.131s1.128 1.132 2.52 1.132z" fill="#FFE700"></path><path d="M4.026 4.613c1.392 0 2.52-.488 2.52-1.09 0-.6-1.128-1.088-2.52-1.088-1.392 0-2.52.487-2.52 1.089 0 .601 1.128 1.089 2.52 1.089z" fill="#FF9F00"></path><path d="M3.815 3.341c-.37.193-.485.217-.574.193-.084-.022-.123-.099.038-.242.121-.106.26-.19.412-.25l.12-.05-.3-.216-.114.045a1.93 1.93 0 00-.43.235l-.328-.082-.346.285.359.094c-.193.26-.118.486.21.575.424.116.866-.08 1.264-.3.336-.184.469-.186.555-.164.136.034.138.155.002.297-.14.138-.307.248-.491.322l-.147.06.363.27.118-.047c.202-.086.388-.206.548-.354l.395.104.289-.334-.412-.104c.152-.308-.056-.508-.34-.577-.443-.107-.864.07-1.19.24z" fill="#FFCA00"></path><path d="M5.348 3.678c.11-.223.03-.389-.13-.49l-.438.408a.33.33 0 01-.097.165 1.395 1.395 0 01-.358.26l-.197.184.28.21.119-.049a1.69 1.69 0 00.246-.128l.595-.555-.02-.005zm-1.533-.337c-.271.14-.404.191-.492.2l-.424.395c.412.096.84-.093 1.227-.307.09-.05.185-.095.282-.131l.451-.42c-.389-.044-.753.111-1.044.263zm-.536-.049c.074-.066.156-.124.244-.172l.203-.19-.216-.155-.059.023-.902.843c.008.093.066.172.17.229l.451-.42c.003-.039.034-.092.109-.158zM4.317 2.38l.482-.45a5.962 5.962 0 00-.375-.037l-.514.479c.134-.002.27.001.407.008zm-.029 2.311a5.598 5.598 0 01-.673-.008l-.471.44c.026.003.05.008.076.012a5.572 5.572 0 00.54.049h.001l.527-.493zm-2.074-.35a2.116 2.116 0 01-.26-.146l-.383.357c.081.056.166.106.253.153l.39-.364zm.534.702l.442-.412a3.857 3.857 0 01-.807-.216l-.398.371c.245.11.5.197.763.257zm3.007-2.355c.15.064.292.146.422.243l.385-.36a2.983 2.983 0 00-.413-.25l-.394.367zm-1.077-.277c.248.03.493.081.732.153l.41-.382a4.586 4.586 0 00-.808-.216l-.464.433.13.012z" fill="#ffe300"></path><path d="M7.144 2.654h-.49v.68h.49v-.68zm-5.747 0h-.49v.68h.49v-.68z" fill="#FA8A00"></path><path d="M4.026 4.99c1.722 0 3.117-.741 3.117-1.656 0-.915-1.395-1.656-3.117-1.656S.908 2.419.908 3.334c0 .915 1.396 1.656 3.118 1.656z" fill="#FA8A00"></path><path d="M4.026 4.31c1.722 0 3.117-.74 3.117-1.656 0-.914-1.395-1.656-3.117-1.656S.908 1.74.908 2.654c0 .915 1.396 1.657 3.118 1.657z" fill="#FFCA00"></path><path d="M4.026 3.818c1.391 0 2.52-.52 2.52-1.163S5.417 1.49 4.026 1.49c-1.392 0-2.52.521-2.52 1.164 0 .642 1.128 1.163 2.52 1.163z" fill="#FA8A00"></path><path d="M4.026 3.817c1.391 0 2.52-.507 2.52-1.132 0-.625-1.129-1.131-2.52-1.131-1.392 0-2.52.506-2.52 1.131s1.128 1.132 2.52 1.132z" fill="#FFE700"></path><path d="M4.026 3.732c1.392 0 2.52-.488 2.52-1.09 0-.6-1.128-1.088-2.52-1.088-1.392 0-2.52.487-2.52 1.089 0 .601 1.128 1.089 2.52 1.089z" fill="#FF9F00"></path><path d="M3.815 2.461c-.37.193-.485.217-.574.193-.084-.022-.123-.099.038-.243.121-.105.26-.19.412-.249l.12-.05-.3-.216-.114.045a1.92 1.92 0 00-.43.235l-.328-.082-.346.285.359.094c-.193.26-.118.484.21.575.424.116.866-.08 1.264-.301.336-.183.469-.185.555-.163.136.034.138.155.002.296-.14.139-.307.248-.491.322l-.147.06.363.271.118-.048c.202-.086.388-.206.548-.353l.395.103.29-.333-.413-.105c.153-.308-.055-.507-.34-.576-.443-.107-.864.07-1.19.24z" fill="#FFCA00"></path><path d="M5.348 2.797c.11-.223.03-.388-.13-.49l-.438.409a.329.329 0 01-.097.165 1.402 1.402 0 01-.358.259l-.197.184.28.21.119-.048c.085-.036.167-.079.246-.128l.595-.555-.02-.006zm-1.533-.336c-.271.14-.404.19-.492.199l-.424.395c.412.096.84-.093 1.227-.308a2 2 0 01.282-.13l.451-.42c-.389-.043-.753.112-1.044.264zm-.536-.05a1.29 1.29 0 01.244-.171l.203-.19-.216-.155-.059.022-.902.843c.008.094.066.172.17.229l.451-.42c.003-.04.034-.09.109-.158zM4.317 1.502l.482-.45a5.971 5.971 0 00-.375-.037l-.514.479c.134-.004.27 0 .407.008zM4.288 3.81a5.398 5.398 0 01-.673-.008l-.471.44c.026.003.05.008.076.012a5.572 5.572 0 00.54.05h.001l.527-.494zm-2.074-.35a2.115 2.115 0 01-.26-.146l-.383.358c.082.055.166.106.253.152l.39-.364zm.534.703l.442-.412a3.875 3.875 0 01-.807-.216l-.398.371c.245.11.5.197.763.257zm3.007-2.356c.15.064.292.146.422.243l.385-.36a2.356 2.356 0 00-.194-.13 3.097 3.097 0 00-.219-.119l-.394.366zM4.678 1.53c.248.03.493.08.732.152l.41-.38a4.586 4.586 0 00-.808-.217l-.464.432.13.013z" fill="#ffe300"></path><path d="M11 8.172h-.49v.68H11v-.68zm-5.747 0h-.49v.68h.49v-.68z" fill="#FA8A00"></path><path d="M7.882 10.507c1.722 0 3.117-.741 3.117-1.656 0-.915-1.395-1.657-3.117-1.657s-3.118.742-3.118 1.657 1.396 1.656 3.118 1.656z" fill="#FA8A00"></path><path d="M7.882 9.828c1.722 0 3.117-.741 3.117-1.656 0-.915-1.395-1.656-3.117-1.656s-3.118.741-3.118 1.656c0 .915 1.396 1.656 3.118 1.656z" fill="#FFCA00"></path><path d="M7.882 9.336c1.391 0 2.52-.521 2.52-1.164 0-.642-1.129-1.163-2.52-1.163-1.392 0-2.52.52-2.52 1.163s1.128 1.164 2.52 1.164z" fill="#FA8A00"></path><path d="M7.882 9.335c1.391 0 2.52-.507 2.52-1.132 0-.625-1.129-1.132-2.52-1.132-1.392 0-2.52.507-2.52 1.132 0 .625 1.128 1.132 2.52 1.132z" fill="#FFE700"></path><path d="M7.882 9.25c1.392 0 2.52-.488 2.52-1.09 0-.601-1.128-1.089-2.52-1.089-1.392 0-2.52.488-2.52 1.09 0 .6 1.128 1.089 2.52 1.089z" fill="#FF9F00"></path><path d="M7.672 7.978c-.37.192-.485.216-.574.193-.084-.022-.123-.1.038-.243.121-.106.26-.19.412-.25l.12-.049-.3-.216-.114.045a1.93 1.93 0 00-.43.235l-.328-.083-.346.286.358.093c-.192.26-.119.485.212.575.423.116.865-.08 1.263-.3.336-.183.469-.185.555-.163.136.034.138.155.002.296-.14.138-.307.248-.491.322l-.147.06.363.27.118-.047c.202-.086.388-.206.548-.354l.394.104.29-.334-.413-.104c.153-.308-.055-.508-.34-.577-.443-.107-.864.07-1.19.241z" fill="#FFCA00"></path><path d="M9.203 8.315c.11-.223.03-.389-.13-.49l-.437.408a.329.329 0 01-.098.165 1.394 1.394 0 01-.357.26l-.198.184.281.209.118-.048a1.64 1.64 0 00.246-.128l.596-.555-.02-.005zm-1.531-.337c-.271.14-.405.19-.492.198l-.424.396c.412.095.84-.093 1.227-.308a2 2 0 01.282-.13l.451-.42c-.39-.043-.754.112-1.044.264zm-.537-.05c.074-.066.155-.123.243-.17l.204-.19-.217-.155-.057.023-.902.842c.008.093.066.171.17.228l.45-.42c.003-.038.033-.09.109-.158zM8.173 7.017l.482-.45a5.789 5.789 0 00-.375-.037l-.514.48c.134-.004.27 0 .407.007zm-.029 2.311c-.225.011-.45.008-.673-.009L7 9.76c.025.004.05.01.075.013a5.613 5.613 0 00.54.049h.001l.528-.493zm-2.074-.35a2.116 2.116 0 01-.26-.146l-.383.357a2.5 2.5 0 00.253.153l.39-.364zm.535.702l.442-.412a3.87 3.87 0 01-.808-.215l-.397.37c.245.11.5.197.763.258zM9.61 7.325c.15.064.292.145.423.242l.385-.359a2.175 2.175 0 00-.195-.13 3.107 3.107 0 00-.218-.119l-.395.366zm-1.076-.277c.248.03.493.08.732.152l.41-.381a4.575 4.575 0 00-.808-.216l-.464.432.13.013z" fill="#ffe300"></path><path d="M11 7.299h-.49v.68H11v-.68zm-5.747 0h-.49v.68h.49v-.68z" fill="#FA8A00"></path><path d="M7.882 9.634c1.722 0 3.117-.742 3.117-1.656 0-.915-1.395-1.657-3.117-1.657s-3.118.742-3.118 1.657c0 .914 1.396 1.656 3.118 1.656z" fill="#FA8A00"></path><path d="M7.882 8.955c1.722 0 3.117-.741 3.117-1.656 0-.915-1.395-1.656-3.117-1.656s-3.118.741-3.118 1.656c0 .915 1.396 1.656 3.118 1.656z" fill="#FFCA00"></path><path d="M7.882 8.462c1.391 0 2.52-.521 2.52-1.164 0-.642-1.129-1.163-2.52-1.163-1.392 0-2.52.52-2.52 1.163s1.128 1.164 2.52 1.164z" fill="#FA8A00"></path><path d="M7.882 8.462c1.391 0 2.52-.507 2.52-1.132 0-.625-1.129-1.132-2.52-1.132-1.392 0-2.52.507-2.52 1.132 0 .625 1.128 1.132 2.52 1.132z" fill="#FFE700"></path><path d="M7.882 8.376c1.392 0 2.52-.487 2.52-1.089 0-.601-1.128-1.089-2.52-1.089-1.392 0-2.52.488-2.52 1.09 0 .6 1.128 1.088 2.52 1.088z" fill="#FF9F00"></path><path d="M7.673 7.105c-.371.192-.486.216-.575.193-.084-.022-.123-.1.038-.243.122-.106.261-.19.412-.25l.12-.049-.3-.216-.114.045a1.93 1.93 0 00-.43.235l-.329-.083-.347.286.359.093c-.193.26-.12.485.211.575.424.116.866-.08 1.264-.3.336-.183.468-.185.554-.163.136.034.139.155.003.296a1.48 1.48 0 01-.492.322l-.147.06.364.27.117-.047a1.92 1.92 0 00.549-.354l.394.104.29-.334-.41-.102c.152-.308-.056-.508-.34-.577-.445-.109-.865.068-1.191.239z" fill="#FFCA00"></path><path d="M9.203 7.443c.11-.223.03-.389-.13-.49l-.437.408a.329.329 0 01-.098.165 1.394 1.394 0 01-.357.26l-.198.184.281.209.118-.048a1.64 1.64 0 00.246-.128l.596-.555-.02-.005zm-1.531-.338c-.27.14-.405.19-.492.199l-.425.396c.412.095.84-.093 1.227-.308a2 2 0 01.282-.13l.451-.42c-.389-.044-.753.111-1.043.263zm-.537-.05c.074-.066.155-.123.243-.17l.204-.19-.217-.155-.057.023-.902.842c.008.093.066.171.17.228l.449-.419c.004-.04.034-.092.11-.159zM8.173 6.144l.482-.45a5.789 5.789 0 00-.375-.037l-.514.48c.134-.004.27 0 .407.007zm-.029 2.311c-.225.011-.45.008-.673-.009L7 8.886c.025.004.05.01.075.013a5.613 5.613 0 00.54.049h.001l.528-.493zm-2.074-.35a2.115 2.115 0 01-.26-.146l-.383.357a2.5 2.5 0 00.253.153l.39-.364zm.535.703l.442-.413a3.87 3.87 0 01-.808-.215l-.397.37c.244.11.5.197.763.258zM9.61 6.452c.15.064.292.145.423.242l.385-.359a2.175 2.175 0 00-.195-.13 3.103 3.103 0 00-.218-.12l-.395.367zm-1.076-.277c.248.03.493.08.732.152l.41-.381a4.575 4.575 0 00-.808-.217l-.464.433.13.013z" fill="#ffe300"></path><path d="M11 6.418h-.49v.68H11v-.68zm-5.747 0h-.49v.68h.49v-.68z" fill="#FA8A00"></path><path d="M7.882 8.754c1.722 0 3.117-.741 3.117-1.656 0-.915-1.395-1.657-3.117-1.657s-3.118.742-3.118 1.657S6.16 8.754 7.882 8.754z" fill="#FA8A00"></path><path d="M7.882 8.074c1.722 0 3.117-.741 3.117-1.656 0-.915-1.395-1.656-3.117-1.656s-3.118.741-3.118 1.656c0 .915 1.396 1.656 3.118 1.656z" fill="#FFCA00"></path><path d="M7.882 7.582c1.391 0 2.52-.521 2.52-1.164 0-.642-1.129-1.163-2.52-1.163-1.392 0-2.52.52-2.52 1.163s1.128 1.164 2.52 1.164z" fill="#FA8A00"></path><path d="M7.882 7.582c1.391 0 2.52-.507 2.52-1.132 0-.625-1.129-1.132-2.52-1.132-1.392 0-2.52.507-2.52 1.132 0 .625 1.128 1.132 2.52 1.132z" fill="#FFE700"></path><path d="M7.882 7.497c1.392 0 2.52-.488 2.52-1.09 0-.601-1.128-1.089-2.52-1.089-1.392 0-2.52.488-2.52 1.09 0 .601 1.128 1.089 2.52 1.089z" fill="#FF9F00"></path><path d="M7.673 6.224c-.371.192-.486.216-.575.193-.084-.022-.123-.1.038-.243.122-.105.261-.19.412-.25l.12-.049-.3-.216-.114.045a1.93 1.93 0 00-.43.235l-.329-.082-.347.285.359.094c-.193.26-.12.484.211.575.424.116.866-.08 1.264-.3.336-.184.468-.186.554-.164.136.034.139.155.003.297-.14.138-.307.247-.492.321l-.147.06.364.271.117-.048a1.92 1.92 0 00.549-.353L9.324 7l.29-.334L9.2 6.56c.152-.308-.055-.508-.34-.576-.442-.107-.862.07-1.188.24z" fill="#FFCA00"></path><path d="M9.203 6.56c.11-.222.03-.388-.13-.489l-.437.408a.33.33 0 01-.098.165 1.4 1.4 0 01-.357.26l-.198.184.281.209.118-.048a1.68 1.68 0 00.246-.128l.596-.555-.02-.005zm-1.531-.336c-.271.14-.405.19-.492.199l-.424.395c.412.095.84-.093 1.227-.307.09-.051.185-.095.282-.132l.451-.42c-.39-.042-.754.112-1.044.265zm-.537-.049c.074-.066.155-.124.243-.172l.204-.19-.217-.155-.057.023-.902.843c.008.093.066.171.17.228l.45-.42c.003-.038.033-.09.109-.157zM8.173 5.263l.482-.448a5.789 5.789 0 00-.375-.038l-.514.48c.134-.004.27 0 .407.006zm-.029 2.311c-.225.011-.45.008-.673-.009L7 8.005c.025.004.05.01.075.013a5.61 5.61 0 00.54.049h.001l.528-.493zM6.07 7.225a2.113 2.113 0 01-.26-.146l-.383.357c.081.055.166.106.253.152l.39-.363zm.535.703l.442-.413a3.852 3.852 0 01-.808-.215l-.397.371c.245.11.5.197.763.257zM9.61 5.572c.15.064.292.145.423.242l.385-.36a2.993 2.993 0 00-.413-.25l-.395.368zm-1.076-.278c.248.03.493.081.732.152l.41-.381a4.6 4.6 0 00-.808-.216l-.464.432.13.013z" fill="#ffe300"></path><path d="M5.688 6.128l-.354.329.485.492.354-.329-.485-.492zM1.533 9.981l-.354.329.485.491.354-.328-.485-.492z" fill="#FA8A00"></path><path d="M5.097 9.908c1.245-1.154 1.725-2.626 1.074-3.287-.652-.661-2.189-.262-3.434.893C1.493 8.668 1.012 10.14 1.664 10.8c.651.661 2.188.261 3.433-.893z" fill="#FA8A00"></path><path d="M4.613 9.417C5.858 8.263 6.338 6.79 5.687 6.13c-.652-.662-2.189-.262-3.433.892C1.009 8.177.528 9.648 1.18 10.31c.651.66 2.189.261 3.433-.893z" fill="#FFCA00"></path><path d="M4.262 9.06c1.006-.933 1.45-2.066.993-2.53-.458-.465-1.644-.085-2.65.848-1.006.933-1.45 2.066-.993 2.53.457.465 1.644.085 2.65-.848z" fill="#FA8A00"></path><path d="M4.261 9.06c1.007-.932 1.461-2.055 1.016-2.507-.445-.452-1.622-.061-2.628.872S1.19 9.48 1.634 9.932c.445.452 1.621.062 2.627-.871z" fill="#FFE700"></path><path d="M4.201 9c1.006-.934 1.475-2.043 1.046-2.478-.428-.435-1.591-.03-2.597.903-1.007.933-1.475 2.042-1.047 2.477.429.434 1.592.03 2.598-.903z" fill="#FF9F00"></path><path d="M3.448 7.936c.406-.106.507-.165.555-.241.045-.072.02-.154-.2-.152a1.438 1.438 0 00-.476.092l-.122.044.067-.358.114-.042a1.92 1.92 0 01.48-.114l.18-.278.454-.022-.195.307c.324.061.429.273.252.559-.227.366-.687.517-1.133.62-.374.09-.471.177-.52.25-.074.114.01.205.207.218.2.008.398-.023.585-.092l.15-.053-.074.438-.12.044a1.969 1.969 0 01-.648.107l-.215.337-.446-.051.226-.35c-.328-.123-.318-.406-.159-.646.248-.374.679-.524 1.038-.617z" fill="#FFCA00"></path><path d="M2.821 7.186l.03-.648a5.584 5.584 0 00-.299.225l-.03.69c.094-.09.195-.18.3-.267zm1.624 1.691a5.245 5.245 0 01-.493.445l-.03.634.065-.041c.075-.052.147-.107.22-.162.074-.055.137-.108.204-.164l.034-.712zm-1.747 1.137c-.096.03-.193.052-.292.069l-.023.514c.098-.015.196-.035.292-.06l.023-.523zm.885.15l.026-.595c-.23.155-.476.284-.736.386l-.023.534c.255-.084.5-.193.733-.325zm.495-3.718c.154-.054.315-.09.478-.108l.022-.518a3.076 3.076 0 00-.476.097l-.024.53zm-.975.521c.2-.145.414-.272.637-.38l.024-.55a4.555 4.555 0 00-.737.384L3 7.045c.034-.026.068-.053.103-.078zM3.698 8.726l.15-.053-.074.438-.12.044-.046.014.02-.422.07-.02zm.106-1.183c-.042 0-.08.005-.117.009l.017-.36c.054-.01.107-.022.162-.029l.18-.277h.005l-.035.724c-.019-.039-.08-.068-.212-.067zm-.864.572l-.023.471-.011.015c-.038.057-.035.11.003.148l-.035.72-.084.13-.095-.01.066-1.375a1.55 1.55 0 01.178-.099zm1.072-.438l-.024.498c-.11.047-.222.086-.337.118l.02-.42c.223-.07.295-.119.333-.179a.164.164 0 00.008-.017zm-1.583 1.44c-.177-.143-.15-.368-.018-.565.015-.022.032-.04.048-.062l-.03.627zm2.077-1.873c.158.099.185.272.052.486a.943.943 0 01-.08.106l.028-.592zM2.407 9.556l-.064-.007.07-.108-.006.115z" fill="#ffe300"></path></svg>