<svg viewBox="0 0 6 13" xmlns="http://www.w3.org/2000/svg" class="usd" width="512" height="512"><title>Dollar</title><path d="M4.61 6.082c-.454-.26-.937-.459-1.415-.664a3.15 3.15 0 01-.778-.451c-.461-.382-.373-1.002.168-1.247.153-.07.313-.092.476-.102a3.504 3.504 0 011.789.367c.282.142.375.097.47-.208.101-.322.185-.65.278-.974.062-.218-.014-.362-.213-.454A4.43 4.43 0 004.256 2c-.511-.082-.511-.084-.514-.617C3.74.632 3.74.632 3.012.632c-.104 0-.21-.003-.315 0-.34.01-.397.072-.406.426-.005.159 0 .317-.003.479-.002.47-.005.463-.44.627C.796 2.56.145 3.304.076 4.494.014 5.546.545 6.257 1.379 6.775c.515.32 1.084.508 1.63.758.212.097.415.208.592.362.524.449.428 1.195-.194 1.477a1.888 1.888 0 01-1.045.142A4.545 4.545 0 01.77 9.02c-.295-.158-.38-.116-.481.213-.086.286-.163.573-.24.86-.102.387-.064.479.292.66.455.228.94.344 1.435.426.388.065.4.082.405.498l.004.568c.003.238.113.376.35.381.267.005.538.005.806-.002.22-.005.332-.129.332-.36 0-.257.012-.517.002-.775-.012-.263.098-.397.342-.466a2.694 2.694 0 001.409-.937c1.024-1.289.634-3.175-.816-4.005z" fill="#00ACF6"></path></svg>