<svg width="12.000000000000002" height="12.000000000000002" xmlns="http://www.w3.org/2000/svg" class="usd">
 <title>Dollar</title>

 <g>
  <title>Layer 1</title>
  <path id="svg_1" fill="#00ACF6" d="m7.44405,5.45133c-0.454,-0.26 -0.937,-0.459 -1.415,-0.664a3.15,3.15 0 0 1 -0.778,-0.451c-0.461,-0.382 -0.373,-1.002 0.168,-1.247c0.153,-0.07 0.313,-0.092 0.476,-0.102a3.504,3.504 0 0 1 1.789,0.367c0.282,0.142 0.375,0.097 0.47,-0.208c0.101,-0.322 0.185,-0.65 0.278,-0.974c0.062,-0.218 -0.014,-0.362 -0.213,-0.454a4.43,4.43 0 0 0 -1.129,-0.349c-0.511,-0.082 -0.511,-0.084 -0.514,-0.617c-0.002,-0.751 -0.002,-0.751 -0.73,-0.751c-0.104,0 -0.21,-0.003 -0.315,0c-0.34,0.01 -0.397,0.072 -0.406,0.426c-0.005,0.159 0,0.317 -0.003,0.479c-0.002,0.47 -0.005,0.463 -0.44,0.627c-1.052,0.396 -1.703,1.14 -1.772,2.33c-0.062,1.052 0.469,1.763 1.303,2.281c0.515,0.32 1.084,0.508 1.63,0.758c0.212,0.097 0.415,0.208 0.592,0.362c0.524,0.449 0.428,1.195 -0.194,1.477a1.888,1.888 0 0 1 -1.045,0.142a4.545,4.545 0 0 1 -1.592,-0.494c-0.295,-0.158 -0.38,-0.116 -0.481,0.213c-0.086,0.286 -0.163,0.573 -0.24,0.86c-0.102,0.387 -0.064,0.479 0.292,0.66c0.455,0.228 0.94,0.344 1.435,0.426c0.388,0.065 0.4,0.082 0.405,0.498l0.004,0.568c0.003,0.238 0.113,0.376 0.35,0.381c0.267,0.005 0.538,0.005 0.806,-0.002c0.22,-0.005 0.332,-0.129 0.332,-0.36c0,-0.257 0.012,-0.517 0.002,-0.775c-0.012,-0.263 0.098,-0.397 0.342,-0.466a2.694,2.694 0 0 0 1.409,-0.937c1.024,-1.289 0.634,-3.175 -0.816,-4.005l0,0.001z"/>
 </g>
</svg>