<svg viewBox="0 0 49 55" xmlns="http://www.w3.org/2000/svg" class="">
      <path d="M24.5877 41.4708C21.8621 41.467 19.2494 40.3816 17.3234 38.453C15.3974 36.5244 14.3157 33.9102 14.3157 31.1845V23.3069C14.3156 23.0689 14.4092 22.8403 14.5762 22.6707C14.7432 22.501 14.9703 22.4039 15.2083 22.4001H33.9814C34.2194 22.4039 34.4464 22.501 34.6134 22.6707C34.7804 22.8403 34.874 23.0689 34.874 23.3069V31.227C34.859 33.9466 33.7691 36.5499 31.8421 38.4689C29.9151 40.388 27.3073 41.4671 24.5877 41.4708ZM16.0867 24.1995V31.227C16.0867 33.4816 16.9824 35.6439 18.5766 37.2382C20.1709 38.8324 22.3331 39.7281 24.5877 39.7281C26.8424 39.7281 29.0046 38.8324 30.5989 37.2382C32.1931 35.6439 33.0888 33.4816 33.0888 31.227V24.1428L16.0867 24.1995Z" fill="#A3A3A3"></path>
      <path d="M19.969 20.3316C19.7323 20.3316 19.5053 20.2376 19.3379 20.0702C19.1705 19.9028 19.0764 19.6757 19.0764 19.439V16.0245C19.0764 15.7877 19.1705 15.5607 19.3379 15.3933C19.5053 15.2259 19.7323 15.1318 19.969 15.1318C20.2058 15.1318 20.4328 15.2259 20.6002 15.3933C20.7676 15.5607 20.8616 15.7877 20.8616 16.0245V19.439C20.8616 19.6757 20.7676 19.9028 20.6002 20.0702C20.4328 20.2376 20.2058 20.3316 19.969 20.3316Z" fill="#A3A3A3"></path>
      <path d="M29.2209 20.3316C28.9841 20.3316 28.7571 20.2376 28.5897 20.0702C28.4223 19.9028 28.3282 19.6757 28.3282 19.439V16.0245C28.3282 15.7877 28.4223 15.5607 28.5897 15.3933C28.7571 15.2259 28.9841 15.1318 29.2209 15.1318C29.4576 15.1318 29.6847 15.2259 29.8521 15.3933C30.0195 15.5607 30.1135 15.7877 30.1135 16.0245V19.439C30.1135 19.6757 30.0195 19.9028 29.8521 20.0702C29.6847 20.2376 29.4576 20.3316 29.2209 20.3316Z" fill="#A3A3A3"></path>
      <path d="M24.5878 9.12442C23.6849 9.12441 22.8023 8.85649 22.0517 8.35456C21.3012 7.85263 20.7164 7.13928 20.3716 6.30482C20.0267 5.47036 19.9372 4.55232 20.1143 3.66695C20.2915 2.78158 20.7275 1.9687 21.3669 1.33123C22.0064 0.693761 22.8206 0.260373 23.7065 0.0859425C24.5924 -0.0884882 25.5101 0.00388481 26.3435 0.351362C27.1769 0.698838 27.8885 1.28578 28.3881 2.0379C28.8876 2.79001 29.1528 3.67346 29.15 4.57638C29.15 5.17484 29.0319 5.7674 28.8025 6.32012C28.573 6.87284 28.2368 7.37483 27.8129 7.79734C27.3891 8.21985 26.8861 8.55457 26.3326 8.78229C25.7792 9.01002 25.1863 9.12628 24.5878 9.12442ZM24.5878 1.81356C24.0244 1.81373 23.4738 1.98185 23.0064 2.29646C22.539 2.61108 22.176 3.0579 21.9638 3.57982C21.7515 4.10175 21.6997 4.6751 21.8149 5.22662C21.9301 5.77815 22.2071 6.2828 22.6105 6.67613C23.0139 7.06946 23.5254 7.3336 24.0797 7.43481C24.634 7.53602 25.2058 7.46968 25.7222 7.2443C26.2386 7.01893 26.6761 6.64474 26.9787 6.16952C27.2814 5.6943 27.4356 5.13963 27.4215 4.57638C27.403 3.83719 27.0963 3.1345 26.5669 2.61831C26.0375 2.10212 25.3273 1.81332 24.5878 1.81356Z" fill="#A3A3A3"></path>
      <path d="M32.5789 20.3316H16.6111C16.3744 20.3316 16.1474 20.2376 15.98 20.0702C15.8126 19.9028 15.7185 19.6757 15.7185 19.439V14.9335C15.7185 13.5493 16.2674 12.2217 17.2448 11.2416C18.2222 10.2615 19.5483 9.70907 20.9325 9.70532H28.2575C29.6417 9.70907 30.9678 10.2615 31.9452 11.2416C32.9226 12.2217 33.4715 13.5493 33.4715 14.9335V19.439C33.4715 19.6757 33.3774 19.9028 33.2101 20.0702C33.0427 20.2376 32.8156 20.3316 32.5789 20.3316ZM17.5037 18.5464H31.6721V14.9335C31.6721 14.0241 31.3109 13.152 30.6678 12.509C30.0248 11.866 29.1527 11.5047 28.2433 11.5047H20.9325C20.0231 11.5047 19.151 11.866 18.508 12.509C17.865 13.152 17.5037 14.0241 17.5037 14.9335V18.5464Z" fill="#A3A3A3"></path>
      <path d="M34.8743 24.1429H14.3159C13.8562 24.1392 13.4166 23.9539 13.0928 23.6275C12.7691 23.3011 12.5874 22.86 12.5874 22.4002V20.2183C12.5874 19.7599 12.7695 19.3202 13.0937 18.996C13.4178 18.6719 13.8575 18.4897 14.3159 18.4897H34.8743C35.1013 18.4897 35.326 18.5345 35.5357 18.6213C35.7454 18.7082 35.936 18.8355 36.0965 18.996C36.257 19.1565 36.3843 19.3471 36.4712 19.5568C36.5581 19.7665 36.6028 19.9913 36.6028 20.2183V22.4002C36.6028 22.86 36.4212 23.3011 36.0974 23.6275C35.7736 23.9539 35.334 24.1392 34.8743 24.1429ZM14.3726 22.3435H34.8176V20.275H14.3726V22.3435Z" fill="#A3A3A3"></path>
      <path d="M24.5879 34.7126C23.3979 34.6469 22.2782 34.1279 21.4591 33.2622C20.6399 32.3966 20.1833 31.2501 20.1833 30.0582C20.1833 28.8664 20.6399 27.7199 21.4591 26.8543C22.2782 25.9886 23.3979 25.4696 24.5879 25.4039C24.8246 25.4039 25.0516 25.498 25.219 25.6654C25.3864 25.8328 25.4805 26.0598 25.4805 26.2965C25.4805 26.5333 25.3864 26.7603 25.219 26.9277C25.0516 27.0951 24.8246 27.1891 24.5879 27.1891C24.0274 27.1891 23.4796 27.3553 23.0136 27.6667C22.5476 27.9781 22.1843 28.4206 21.9699 28.9384C21.7554 29.4562 21.6993 30.026 21.8086 30.5756C21.918 31.1253 22.1879 31.6302 22.5842 32.0265C22.9805 32.4228 23.4854 32.6927 24.035 32.802C24.5847 32.9114 25.1545 32.8553 25.6723 32.6408C26.19 32.4263 26.6326 32.0631 26.944 31.5971C27.2553 31.1311 27.4215 30.5833 27.4215 30.0228C27.4215 29.7861 27.5156 29.5591 27.683 29.3917C27.8504 29.2243 28.0774 29.1302 28.3142 29.1302C28.5509 29.1302 28.7779 29.2243 28.9453 29.3917C29.1127 29.5591 29.2068 29.7861 29.2068 30.0228C29.2143 31.2567 28.7324 32.4432 27.8666 33.3223C27.0007 34.2014 25.8217 34.7013 24.5879 34.7126Z" fill="#A3A3A3"></path>
      <path d="M35.4126 35.7892C34.5854 35.7945 33.7674 35.6154 33.0181 35.265C32.9107 35.2162 32.8141 35.1465 32.7338 35.0601C32.6535 34.9737 32.5912 34.8722 32.5503 34.7615C32.5095 34.6509 32.491 34.5332 32.4959 34.4153C32.5008 34.2975 32.529 34.1817 32.5789 34.0748C32.6832 33.863 32.8648 33.6994 33.0863 33.6176C33.3078 33.5359 33.5522 33.5423 33.769 33.6356C34.2832 33.8777 34.8443 34.0034 35.4126 34.004C36.4585 34.0003 37.4603 33.5821 38.1986 32.8412C38.9369 32.1003 39.3514 31.097 39.3514 30.051C39.3534 29.3974 39.191 28.7537 38.8791 28.1793C38.5671 27.6048 38.1156 27.1182 37.5662 26.764C37.4511 26.7069 37.3494 26.626 37.2679 26.5266C37.1864 26.4273 37.1269 26.3118 37.0935 26.1877C37.06 26.0636 37.0533 25.9339 37.0738 25.807C37.0943 25.6802 37.1415 25.5591 37.2123 25.4519C37.2831 25.3447 37.3759 25.2537 37.4845 25.185C37.5931 25.1164 37.7151 25.0716 37.8424 25.0537C37.9696 25.0357 38.0992 25.045 38.2226 25.081C38.3459 25.1169 38.4603 25.1787 38.558 25.2621C39.6401 25.9088 40.4757 26.8979 40.9326 28.0728C41.3895 29.2478 41.4416 30.5415 41.0807 31.7493C40.7198 32.9572 39.9665 34.0103 38.9399 34.7419C37.9134 35.4736 36.6721 35.8422 35.4126 35.7892Z" fill="#A3A3A3"></path>
      <path d="M13.7774 35.7892C12.5179 35.8422 11.2767 35.4736 10.2501 34.7419C9.22352 34.0103 8.47017 32.9572 8.10927 31.7493C7.74837 30.5415 7.80051 29.2478 8.25741 28.0728C8.71431 26.8979 9.54991 25.9088 10.632 25.2621C10.7297 25.1787 10.844 25.1169 10.9674 25.081C11.0908 25.045 11.2204 25.0357 11.3476 25.0537C11.4749 25.0716 11.5968 25.1164 11.7055 25.185C11.8141 25.2537 11.9069 25.3447 11.9777 25.4519C12.0485 25.5591 12.0957 25.6802 12.1162 25.807C12.1367 25.9339 12.13 26.0636 12.0965 26.1877C12.063 26.3118 12.0036 26.4273 11.9221 26.5266C11.8406 26.626 11.7389 26.7069 11.6238 26.764C11.0744 27.1182 10.6229 27.6048 10.3109 28.1793C9.99896 28.7537 9.83654 29.3974 9.83859 30.051C9.83859 31.097 10.2531 32.1003 10.9914 32.8412C11.7296 33.5821 12.7315 34.0003 13.7774 34.004C14.3457 34.0034 14.9068 33.8777 15.4209 33.6356C15.6378 33.5423 15.8822 33.5359 16.1037 33.6176C16.3251 33.6994 16.5068 33.863 16.6111 34.0748C16.661 34.1817 16.6892 34.2975 16.6941 34.4153C16.699 34.5332 16.6805 34.6509 16.6397 34.7615C16.5989 34.8722 16.5364 34.9737 16.4561 35.0601C16.3758 35.1465 16.2792 35.2162 16.1719 35.265C15.4226 35.6154 14.6046 35.7945 13.7774 35.7892Z" fill="#A3A3A3"></path>
      <path d="M24.5879 46.3589C23.7991 46.3594 23.0245 46.1488 22.3446 45.749C21.6646 45.3492 21.1039 44.7747 20.7209 44.0852C20.3378 43.3956 20.1462 42.6161 20.1659 41.8275C20.1857 41.039 20.4162 40.2701 20.8333 39.6006C20.9407 39.4297 21.1028 39.3002 21.2932 39.2333C21.4836 39.1664 21.6911 39.166 21.8818 39.2322C23.642 39.825 25.548 39.825 27.3082 39.2322C27.4989 39.166 27.7064 39.1664 27.8968 39.2333C28.0872 39.3002 28.2494 39.4297 28.3567 39.6006C28.7745 40.2711 29.005 41.0413 29.0242 41.8311C29.0434 42.6209 28.8505 43.4014 28.4657 44.0914C28.081 44.7814 27.5183 45.3556 26.8363 45.7544C26.1543 46.1532 25.378 46.3619 24.5879 46.3589ZM22.0801 41.1449C21.9953 41.3911 21.9522 41.6497 21.9526 41.91C21.9526 42.609 22.2303 43.2793 22.7245 43.7735C23.2187 44.2677 23.889 44.5453 24.5879 44.5453C25.2869 44.5453 25.9572 44.2677 26.4514 43.7735C26.9456 43.2793 27.2232 42.609 27.2232 41.91C27.2285 41.6505 27.1902 41.3918 27.1099 41.1449C25.4585 41.5559 23.7315 41.5559 22.0801 41.1449Z" fill="#A3A3A3"></path>
      <path d="M30.7227 54.7891H18.4671C18.2303 54.7891 18.0033 54.6951 17.8359 54.5277C17.6685 54.3603 17.5745 54.1333 17.5745 53.8965V46.8123C17.5745 46.2248 17.8069 45.6612 18.221 45.2444C18.6351 44.8276 19.1972 44.5916 19.7847 44.5879H29.3909C29.9808 44.5879 30.5466 44.8223 30.9638 45.2394C31.381 45.6566 31.6153 46.2224 31.6153 46.8123V53.8965C31.6153 54.1333 31.5213 54.3603 31.3539 54.5277C31.1865 54.6951 30.9594 54.7891 30.7227 54.7891ZM19.388 53.0039H29.8301V46.8123C29.8321 46.756 29.8224 46.6998 29.8018 46.6474C29.7811 46.5949 29.7499 46.5472 29.71 46.5074C29.6701 46.4675 29.6225 46.4363 29.57 46.4156C29.5175 46.3949 29.4614 46.3853 29.4051 46.3873H19.7989C19.7437 46.3872 19.6891 46.3983 19.6383 46.4199C19.5875 46.4414 19.5416 46.4729 19.5032 46.5126C19.4649 46.5523 19.4349 46.5993 19.4151 46.6508C19.3953 46.7023 19.3861 46.7572 19.388 46.8123V53.0039Z" fill="#A3A3A3"></path>
      <path d="M36.8291 54.7891H12.3604C12.1237 54.7891 11.8966 54.6951 11.7292 54.5277C11.5618 54.3603 11.4678 54.1333 11.4678 53.8965C11.4678 53.6598 11.5618 53.4327 11.7292 53.2653C11.8966 53.098 12.1237 53.0039 12.3604 53.0039H36.8291C37.0659 53.0039 37.2929 53.098 37.4603 53.2653C37.6277 53.4327 37.7218 53.6598 37.7218 53.8965C37.7218 54.1333 37.6277 54.3603 37.4603 54.5277C37.2929 54.6951 37.0659 54.7891 36.8291 54.7891Z" fill="#A3A3A3"></path>
      <path d="M26.7274 50.8786H22.4768C22.2388 50.8749 22.0118 50.7777 21.8448 50.608C21.6778 50.4384 21.5842 50.2099 21.5842 49.9718C21.5842 49.7351 21.6783 49.508 21.8456 49.3406C22.013 49.1732 22.2401 49.0792 22.4768 49.0792H26.7274C26.9641 49.0792 27.1911 49.1732 27.3585 49.3406C27.5259 49.508 27.6199 49.7351 27.6199 49.9718C27.62 50.2099 27.5264 50.4384 27.3594 50.608C27.1924 50.7777 26.9654 50.8749 26.7274 50.8786Z" fill="#A3A3A3"></path>
      <path d="M41.4907 49.2067C41.0771 49.2057 40.6747 49.0716 40.3431 48.8241L39.3372 48.1016C39.3083 48.0808 39.2736 48.0696 39.238 48.0696C39.2024 48.0696 39.1677 48.0808 39.1388 48.1016L38.1329 48.8383C37.7984 49.0867 37.3932 49.2217 36.9766 49.2238C36.56 49.2258 36.1536 49.0946 35.8167 48.8495C35.4799 48.6043 35.2301 48.258 35.1039 47.8609C34.9776 47.4639 34.9815 47.0369 35.115 46.6422L35.4975 45.4521C35.5044 45.4178 35.5014 45.3823 35.4889 45.3497C35.4763 45.3171 35.4548 45.2887 35.4267 45.2679L34.4349 44.5311C34.0988 44.2892 33.8482 43.9468 33.7192 43.5533C33.5903 43.1598 33.5895 42.7356 33.7171 42.3416C33.8448 41.9477 34.0942 41.6044 34.4294 41.3613C34.7647 41.1183 35.1685 40.9879 35.5826 40.989H36.8152C36.8532 40.988 36.89 40.9751 36.9204 40.9523C36.9509 40.9295 36.9735 40.8977 36.9852 40.8615L37.3677 39.6856C37.4976 39.2921 37.7483 38.9495 38.084 38.7067C38.4198 38.464 38.8236 38.3333 39.238 38.3333C39.6523 38.3333 40.0561 38.464 40.3919 38.7067C40.7277 38.9495 40.9784 39.2921 41.1082 39.6856L41.4907 40.8615C41.4998 40.8966 41.5197 40.9279 41.5478 40.9508C41.5758 40.9738 41.6105 40.9872 41.6466 40.989H42.8934C43.3075 40.9879 43.7113 41.1183 44.0465 41.3613C44.3818 41.6044 44.6312 41.9477 44.7588 42.3416C44.8865 42.7356 44.8857 43.1598 44.7567 43.5533C44.6277 43.9468 44.3771 44.2892 44.041 44.5311L43.0493 45.2679C43.0148 45.2861 42.9884 45.3166 42.9753 45.3533C42.9621 45.39 42.9633 45.4303 42.9784 45.4663L43.361 46.6422C43.4934 47.0359 43.496 47.4617 43.3685 47.857C43.241 48.2523 42.9901 48.5962 42.6526 48.8383C42.3115 49.0758 41.9064 49.2043 41.4907 49.2067ZM35.5826 42.7742C35.5456 42.7731 35.5092 42.784 35.479 42.8054C35.4488 42.8268 35.4264 42.8574 35.4152 42.8926C35.404 42.9279 35.4046 42.9658 35.4169 43.0007C35.4292 43.0356 35.4525 43.0655 35.4834 43.086L36.4751 43.8086C36.81 44.0531 37.0599 44.3965 37.1895 44.7904C37.3191 45.1844 37.322 45.609 37.1977 46.0046L36.8152 47.1948C36.7933 47.2205 36.7812 47.2531 36.7812 47.2869C36.7812 47.3207 36.7933 47.3533 36.8152 47.379C36.8285 47.394 36.8448 47.4061 36.8632 47.4144C36.8815 47.4227 36.9013 47.4269 36.9214 47.4269C36.9415 47.4269 36.9614 47.4227 36.9797 47.4144C36.998 47.4061 37.0144 47.394 37.0277 47.379L38.0195 46.6564C38.3562 46.4153 38.76 46.2856 39.1742 46.2856C39.5884 46.2856 39.9922 46.4153 40.3289 46.6564L41.3349 47.379C41.3614 47.4049 41.397 47.4195 41.4341 47.4195C41.4711 47.4195 41.5068 47.4049 41.5333 47.379C41.6466 47.3081 41.6183 47.2231 41.6041 47.1948L41.2215 46.0046C41.0936 45.6106 41.0932 45.1862 41.2204 44.792C41.3476 44.3977 41.5959 44.0536 41.93 43.8086L42.9359 43.086C42.9589 43.058 42.9715 43.023 42.9715 42.9868C42.9715 42.9506 42.9589 42.9155 42.9359 42.8876C42.929 42.8525 42.9092 42.8214 42.8803 42.8003C42.8514 42.7793 42.8156 42.77 42.7801 42.7742H41.5333C41.1114 42.7677 40.7025 42.6268 40.3662 42.372C40.0299 42.1172 39.7835 41.7618 39.663 41.3574L39.2947 40.1815C39.2807 40.1479 39.257 40.1192 39.2268 40.099C39.1965 40.0789 39.161 40.0681 39.1247 40.0681C39.0883 40.0681 39.0527 40.0789 39.0225 40.099C38.9922 40.1192 38.9686 40.1479 38.9546 40.1815L38.5721 41.3574C38.4556 41.7641 38.2103 42.1221 37.8731 42.3776C37.5359 42.633 37.1249 42.7722 36.7018 42.7742H35.5826Z" fill="#A3A3A3"></path>
      <path d="M40.8108 9.76199C40.574 9.76199 40.347 9.66794 40.1796 9.50055C40.0122 9.33315 39.9182 9.10611 39.9182 8.86937V8.30265C39.9182 8.06591 40.0122 7.83887 40.1796 7.67148C40.347 7.50408 40.574 7.41003 40.8108 7.41003C41.0475 7.41003 41.2746 7.50408 41.442 7.67148C41.6094 7.83887 41.7034 8.06591 41.7034 8.30265V8.86937C41.7034 9.10611 41.6094 9.33315 41.442 9.50055C41.2746 9.66794 41.0475 9.76199 40.8108 9.76199Z" fill="#A3A3A3"></path>
      <path d="M40.8108 13.8C40.574 13.8 40.347 13.7059 40.1796 13.5385C40.0122 13.3711 39.9182 13.1441 39.9182 12.9074V12.3406C39.9182 12.1039 40.0122 11.8768 40.1796 11.7094C40.347 11.542 40.574 11.448 40.8108 11.448C41.0475 11.448 41.2746 11.542 41.442 11.7094C41.6094 11.8768 41.7034 12.1039 41.7034 12.3406V12.9074C41.7034 13.1441 41.6094 13.3711 41.442 13.5385C41.2746 13.7059 41.0475 13.8 40.8108 13.8Z" fill="#A3A3A3"></path>
      <path d="M43.1768 11.5047H42.61C42.3909 11.4772 42.1893 11.3705 42.0431 11.2049C41.897 11.0392 41.8164 10.8259 41.8164 10.605C41.8164 10.3841 41.897 10.1708 42.0431 10.0052C42.1893 9.83951 42.3909 9.73288 42.61 9.70533H43.1768C43.3044 9.68928 43.434 9.70057 43.5569 9.73845C43.6799 9.77632 43.7933 9.83993 43.8898 9.92502C43.9862 10.0101 44.0635 10.1147 44.1164 10.232C44.1693 10.3492 44.1967 10.4764 44.1967 10.605C44.1967 10.7337 44.1693 10.8608 44.1164 10.978C44.0635 11.0953 43.9862 11.1999 43.8898 11.285C43.7933 11.3701 43.6799 11.4337 43.5569 11.4716C43.434 11.5095 43.3044 11.5208 43.1768 11.5047Z" fill="#A3A3A3"></path>
      <path d="M39.0822 11.5047H38.5154C38.2963 11.4772 38.0947 11.3705 37.9486 11.2049C37.8025 11.0392 37.7218 10.8259 37.7218 10.605C37.7218 10.3841 37.8025 10.1708 37.9486 10.0052C38.0947 9.8395 38.2963 9.73288 38.5154 9.70532H39.0822C39.3013 9.73288 39.5029 9.8395 39.6491 10.0052C39.7952 10.1708 39.8759 10.3841 39.8759 10.605C39.8759 10.8259 39.7952 11.0392 39.6491 11.2049C39.5029 11.3705 39.3013 11.4772 39.0822 11.5047Z" fill="#A3A3A3"></path>
      <path d="M45.7979 22.8394C45.5599 22.8357 45.3328 22.7385 45.1658 22.5689C44.9988 22.3992 44.9052 22.1707 44.9053 21.9327V21.3092C44.9053 21.0725 44.9993 20.8455 45.1667 20.6781C45.3341 20.5107 45.5612 20.4166 45.7979 20.4166C46.0346 20.4166 46.2616 20.5107 46.429 20.6781C46.5964 20.8455 46.6905 21.0725 46.6905 21.3092V21.876C46.6982 21.9985 46.6809 22.1214 46.6397 22.2371C46.5984 22.3528 46.5341 22.4589 46.4507 22.549C46.3672 22.6391 46.2663 22.7113 46.1541 22.7612C46.0419 22.8111 45.9207 22.8377 45.7979 22.8394Z" fill="#A3A3A3"></path>
      <path d="M45.7979 26.8632C45.5612 26.8632 45.3341 26.7691 45.1667 26.6017C44.9993 26.4343 44.9053 26.2073 44.9053 25.9706V25.4038C44.9053 25.1671 44.9993 24.9401 45.1667 24.7727C45.3341 24.6053 45.5612 24.5112 45.7979 24.5112C46.0346 24.5112 46.2616 24.6053 46.429 24.7727C46.5964 24.9401 46.6905 25.1671 46.6905 25.4038V25.9706C46.6905 26.2073 46.5964 26.4343 46.429 26.6017C46.2616 26.7691 46.0346 26.8632 45.7979 26.8632Z" fill="#A3A3A3"></path>
      <path d="M48.0931 24.5679H47.5264C47.2897 24.5679 47.0626 24.4739 46.8952 24.3065C46.7278 24.1391 46.6338 23.9121 46.6338 23.6753C46.6338 23.4373 46.7273 23.2087 46.8943 23.0391C47.0613 22.8694 47.2884 22.7723 47.5264 22.7686H48.0931C48.3336 22.7686 48.5643 22.8641 48.7343 23.0341C48.9044 23.2042 48.9999 23.4348 48.9999 23.6753C48.9962 23.9134 48.899 24.1404 48.7293 24.3074C48.5597 24.4744 48.3312 24.568 48.0931 24.5679Z" fill="#A3A3A3"></path>
      <path d="M44.0695 24.5679H43.5027C43.2647 24.568 43.0361 24.4744 42.8665 24.3074C42.6968 24.1404 42.5997 23.9134 42.5959 23.6753C42.5959 23.4348 42.6915 23.2042 42.8616 23.0341C43.0316 22.8641 43.2623 22.7686 43.5027 22.7686H44.0695C44.3075 22.7723 44.5345 22.8694 44.7015 23.0391C44.8685 23.2087 44.9621 23.4373 44.9621 23.6753C44.9621 23.9121 44.868 24.1391 44.7006 24.3065C44.5332 24.4739 44.3062 24.5679 44.0695 24.5679Z" fill="#A3A3A3"></path>
      <path d="M7.75583 49.2067C7.34021 49.2043 6.9351 49.0758 6.59401 48.8383C6.25534 48.5939 6.00386 48.2474 5.87638 47.8497C5.7489 47.4519 5.75211 47.0238 5.88559 46.628L6.26816 45.4521C6.27942 45.4179 6.27853 45.3809 6.26561 45.3473C6.2527 45.3138 6.22855 45.2857 6.1973 45.2679L5.20554 44.5311C4.86946 44.2892 4.61885 43.9468 4.48985 43.5533C4.36086 43.1598 4.36014 42.7356 4.48778 42.3416C4.61542 41.9477 4.8648 41.6044 5.20005 41.3613C5.53529 41.1183 5.93907 40.9879 6.35317 40.989H7.59999C7.63617 40.9872 7.67076 40.9738 7.69879 40.9508C7.72683 40.9279 7.74682 40.8966 7.75583 40.8615L8.13836 39.6856C8.26819 39.2921 8.51886 38.9495 8.85464 38.7067C9.19043 38.464 9.59423 38.3333 10.0086 38.3333C10.423 38.3333 10.8268 38.464 11.1625 38.7067C11.4983 38.9495 11.749 39.2921 11.8788 39.6856L12.2614 40.8615C12.2731 40.8977 12.2957 40.9295 12.3261 40.9523C12.3566 40.9751 12.3933 40.988 12.4314 40.989H13.6641C14.0782 40.9879 14.4819 41.1183 14.8171 41.3613C15.1524 41.6044 15.4018 41.9477 15.5294 42.3416C15.6571 42.7356 15.6563 43.1598 15.5273 43.5533C15.3983 43.9468 15.1478 44.2892 14.8117 44.5311L13.8199 45.2679C13.7886 45.2857 13.7645 45.3138 13.7516 45.3473C13.7387 45.3809 13.7378 45.4179 13.7491 45.4521L14.1316 46.6422C14.2603 47.036 14.2606 47.4605 14.1325 47.8544C14.0044 48.2484 13.7544 48.5915 13.4187 48.8342C13.083 49.077 12.6789 49.2068 12.2646 49.205C11.8503 49.2032 11.4473 49.0698 11.1137 48.8241L10.1078 48.1016C10.0789 48.0808 10.0442 48.0696 10.0086 48.0696C9.97301 48.0696 9.93831 48.0808 9.9094 48.1016L8.90346 48.8383C8.56755 49.0755 8.16703 49.2041 7.75583 49.2067ZM6.33899 42.7742C6.30351 42.77 6.26771 42.7793 6.23881 42.8003C6.2099 42.8214 6.19005 42.8525 6.18316 42.8876C6.16013 42.9155 6.14749 42.9506 6.14749 42.9868C6.14749 43.023 6.16013 43.058 6.18316 43.086L7.1891 43.8086C7.52433 44.0559 7.77317 44.4025 7.90033 44.7993C8.02749 45.196 8.02651 45.6227 7.89752 46.0188L7.51494 47.1948C7.51494 47.1948 7.51497 47.3081 7.58581 47.379C7.59777 47.3938 7.61288 47.4057 7.63005 47.4139C7.64721 47.4221 7.66598 47.4263 7.685 47.4263C7.70402 47.4263 7.7228 47.4221 7.73996 47.4139C7.75712 47.4057 7.77219 47.3938 7.78415 47.379L8.79013 46.6564C9.1252 46.4112 9.52964 46.279 9.94486 46.279C10.3601 46.279 10.7645 46.4112 11.0995 46.6564L12.0913 47.379C12.0913 47.379 12.1905 47.379 12.3039 47.379C12.3258 47.3533 12.3379 47.3207 12.3379 47.2869C12.3379 47.2531 12.3258 47.2205 12.3039 47.1948L11.9213 46.0046C11.7927 45.6093 11.7933 45.1833 11.9233 44.7884C12.0532 44.3934 12.3057 44.0502 12.6439 43.8086L13.6357 43.086C13.6665 43.0655 13.6899 43.0356 13.7022 43.0007C13.7145 42.9658 13.7151 42.9279 13.7039 42.8926C13.6927 42.8574 13.6703 42.8268 13.6401 42.8054C13.6099 42.784 13.5735 42.7731 13.5365 42.7742H12.3039C11.8808 42.7722 11.4698 42.633 11.1326 42.3776C10.7954 42.1221 10.5502 41.7641 10.4337 41.3574L10.0511 40.1815C10.0371 40.1479 10.0135 40.1192 9.98325 40.099C9.953 40.0789 9.91744 40.0681 9.88108 40.0681C9.84472 40.0681 9.80917 40.0789 9.77891 40.099C9.74865 40.1192 9.72505 40.1479 9.71107 40.1815L9.32849 41.3574C9.21474 41.763 8.97219 42.1205 8.63737 42.3761C8.30255 42.6317 7.89365 42.7715 7.47244 42.7742H6.33899Z" fill="#A3A3A3"></path>
      <path d="M8.37943 9.76199C8.1427 9.76199 7.91568 9.66794 7.74828 9.50055C7.58088 9.33315 7.48682 9.10611 7.48682 8.86937V8.30265C7.48682 8.06591 7.58088 7.83887 7.74828 7.67148C7.91568 7.50408 8.1427 7.41003 8.37943 7.41003C8.61616 7.41003 8.84319 7.50408 9.01058 7.67148C9.17798 7.83887 9.27204 8.06591 9.27204 8.30265V8.86937C9.27204 9.10611 9.17798 9.33315 9.01058 9.50055C8.84319 9.66794 8.61616 9.76199 8.37943 9.76199Z" fill="#A3A3A3"></path>
      <path d="M8.37943 13.8C8.1427 13.8 7.91568 13.7059 7.74828 13.5385C7.58088 13.3711 7.48682 13.1441 7.48682 12.9074V12.3406C7.48682 12.1039 7.58088 11.8768 7.74828 11.7094C7.91568 11.542 8.1427 11.448 8.37943 11.448C8.61616 11.448 8.84319 11.542 9.01058 11.7094C9.17798 11.8768 9.27204 12.1039 9.27204 12.3406V12.9074C9.27204 13.1441 9.17798 13.3711 9.01058 13.5385C8.84319 13.7059 8.61616 13.8 8.37943 13.8Z" fill="#A3A3A3"></path>
      <path d="M6.65072 11.5047H6.08399C5.95637 11.5208 5.82677 11.5095 5.70384 11.4716C5.58092 11.4337 5.46746 11.3701 5.37099 11.285C5.27453 11.1999 5.1973 11.0953 5.14438 10.978C5.09146 10.8608 5.06409 10.7337 5.06409 10.605C5.06409 10.4764 5.09146 10.3492 5.14438 10.232C5.1973 10.1147 5.27453 10.0101 5.37099 9.92502C5.46746 9.83993 5.58092 9.77632 5.70384 9.73845C5.82677 9.70057 5.95637 9.68928 6.08399 9.70533H6.65072C6.8699 9.73288 7.07149 9.83951 7.21762 10.0052C7.36375 10.1708 7.44436 10.3841 7.44436 10.605C7.44436 10.8259 7.36375 11.0392 7.21762 11.2049C7.07149 11.3705 6.8699 11.4772 6.65072 11.5047Z" fill="#A3A3A3"></path>
      <path d="M10.6746 11.5047H10.1079C9.88868 11.4772 9.68708 11.3705 9.54095 11.2049C9.39482 11.0392 9.31421 10.8259 9.31421 10.605C9.31421 10.3841 9.39482 10.1708 9.54095 10.0052C9.68708 9.8395 9.88868 9.73288 10.1079 9.70532H10.6746C10.8938 9.73288 11.0953 9.8395 11.2415 10.0052C11.3876 10.1708 11.4682 10.3841 11.4682 10.605C11.4682 10.8259 11.3876 11.0392 11.2415 11.2049C11.0953 11.3705 10.8938 11.4772 10.6746 11.5047Z" fill="#A3A3A3"></path>
      <path d="M3.392 22.8394C3.15398 22.8357 2.92695 22.7385 2.75994 22.5689C2.59294 22.3992 2.49936 22.1707 2.49939 21.9327V21.3092C2.49939 21.0725 2.59341 20.8455 2.76081 20.6781C2.92821 20.5107 3.15527 20.4166 3.392 20.4166C3.62874 20.4166 3.85576 20.5107 4.02316 20.6781C4.19055 20.8455 4.28457 21.0725 4.28457 21.3092V21.876C4.29226 21.9985 4.27499 22.1214 4.23377 22.2371C4.19254 22.3528 4.12824 22.4589 4.04477 22.549C3.96131 22.6391 3.86041 22.7113 3.7482 22.7612C3.63599 22.8111 3.51481 22.8377 3.392 22.8394Z" fill="#A3A3A3"></path>
      <path d="M3.392 26.8632C3.15527 26.8632 2.92821 26.7691 2.76081 26.6017C2.59341 26.4343 2.49939 26.2073 2.49939 25.9706V25.4038C2.49939 25.1671 2.59341 24.9401 2.76081 24.7727C2.92821 24.6053 3.15527 24.5112 3.392 24.5112C3.62874 24.5112 3.85576 24.6053 4.02316 24.7727C4.19055 24.9401 4.28457 25.1671 4.28457 25.4038V25.9706C4.28457 26.2073 4.19055 26.4343 4.02316 26.6017C3.85576 26.7691 3.62874 26.8632 3.392 26.8632Z" fill="#A3A3A3"></path>
      <path d="M1.66346 24.5679H1.09669C0.858638 24.568 0.630136 24.4744 0.460484 24.3074C0.290832 24.1404 0.193661 23.9134 0.189941 23.6753C0.189941 23.4348 0.285458 23.2042 0.455512 23.0341C0.625565 22.8641 0.856203 22.7686 1.09669 22.7686H1.66346C1.90149 22.7723 2.12848 22.8694 2.29548 23.0391C2.46248 23.2087 2.55606 23.4373 2.55603 23.6753C2.55603 23.9121 2.46201 24.1391 2.29462 24.3065C2.12722 24.4739 1.9002 24.5679 1.66346 24.5679Z" fill="#A3A3A3"></path>
      <path d="M5.68712 24.5679H5.1204C4.88366 24.5679 4.6566 24.4739 4.4892 24.3065C4.32181 24.1391 4.22778 23.9121 4.22778 23.6753C4.22775 23.4373 4.32134 23.2087 4.48834 23.0391C4.65534 22.8694 4.88237 22.7723 5.1204 22.7686H5.68712C5.92515 22.7723 6.15214 22.8694 6.31914 23.0391C6.48614 23.2087 6.57977 23.4373 6.57974 23.6753C6.57974 23.9121 6.48567 24.1391 6.31827 24.3065C6.15088 24.4739 5.92386 24.5679 5.68712 24.5679Z" fill="#A3A3A3"></path>
   </svg>