<?xml version="1.0" encoding="UTF-8" standalone="no"?>
<svg viewBox="0 -10 55 75" fill="darkgray" xmlns="http://www.w3.org/2000/svg" x="0px" y="0px">
    <path d="M54.708 12.637c-.214-10.128-.228-7.938-.019-11.095a.34.34 0 00-.316-.362C39.293.15 38.721.03 37.553.03 16.98.028 27.78-.308.32 1.312a.34.34 0 00-.32.357c1.77 33.955 1.706 28.416.802 51.045a.34.34 0 00.261.345c2.055.485 1.691.294 6.485.298.008.002 8.985-.978 8.993-.98.042.008 12.413 2.038 12.456 2.038a.3.3 0 00.028-.001c14.498-1.215 10.343-.922 19.696-1.44l5.492 1.111a.34.34 0 00.407-.337c-.118-11.057.088-41.111.088-41.111zm-22.294-.806c.04-.01.099-.024.172-.044l3.909-.88c2.002-.502 2.298-.625 4.012-1.43.791.274 2.96 1.475 3.51 2.164.364.456.34.557.225 1.046a12.368 12.368 0 00-.078.355l-.86 6.727c-.85.031-.92-.034-1.156-.25a3.207 3.207 0 00-.431-.345c-1.294-.868-5.527-4-6.863-5.078l-2.628-2.111.021-.02a.367.367 0 00.07-.103.426.426 0 01.097-.031zm6.091 33.87c-.076-.077-32.849-34.82-32.873-34.867l2.863-2.197 40.011 26.494c-.33.947-.462 2.035-.661 2.938-.703 3.189-1.607 4.584-3.02 7.614-2.024.08-6.18.065-6.32.018zm-29.812-9.4c.369-.885.875-2.309 1.3-3.03 2.094 1.307 10.269 9.521 10.98 10.63-.394.147-2.086.398-4.896 1.52-1.78.711-3.462 1.385-5.086.834-.162-.055-.594-.421-1.234-.974-1.17-1.01-2.228-1.736-2.844-2.1-1.05-.62-.886-.49 1.78-6.88z"></path>
</svg>