<?xml version="1.0" encoding="UTF-8" standalone="no"?>
<svg viewBox="0 -10 33 55" fill="blue" xmlns="http://www.w3.org/2000/svg" x="0px" y="0px">
    <path d="M1.736 0l4 6.608v21.758L1.474 35h24.982L33 26.25H15.771V0H1.736zm5.132 2.917h6.036v26.25h14.31l-2.18 2.916H6.778l1.826-2.845V5.785l-.212-.35-1.524-2.518h.001zm11.77.278v2.977c5.737 1.331 10.035 6.552 10.035 12.786 0 1.491-.25 2.971-.742 4.375h3.008c.388-1.39.602-2.858.602-4.375 0-7.848-5.574-14.386-12.903-15.763zM2.868 9.764a16.19 16.19 0 00-2.69 11.6 16.139 16.139 0 002.69 6.79V9.763z"></path>
</svg>