<?xml version="1.0" encoding="UTF-8" standalone="no"?>
<svg viewBox="0 -10 59 50" fill="gray" xmlns="http://www.w3.org/2000/svg" x="0px" y="0px">
    <path d="M3.82324 0.121021C3.40895 0.245753 3.09988 0.41644 2.86972 0.698729C2.54092 1.09262 2.52777 1.1517 2.55408 2.32682C2.56723 3.003 2.56723 4.1978 2.55408 5.00528C2.54092 6.44955 2.54092 6.44955 2.27131 6.36421C1.73208 6.18039 0.443191 6.26574 0.226184 6.50207C0.0420571 6.69902 0.0420571 6.69902 0.252488 6.6268C0.410311 6.58085 0.462919 6.60054 0.423463 6.69902C0.397159 6.78436 0.29852 6.84344 0.226184 6.82375C0.140697 6.81062 0.0880889 7.03383 0.0880889 7.43428C0.0880889 7.78879 0.0486331 8.28115 0.0157532 8.51092C-0.0302785 8.85229 0.0157532 9.00329 0.272216 9.27245C0.568134 9.58756 0.666774 9.61382 1.54795 9.61382C2.36995 9.61382 2.51462 9.65321 2.56723 9.82389C2.63956 10.1062 2.55408 24.0762 2.48174 24.2732C2.44228 24.3848 2.16609 24.4307 1.63344 24.4307C1.10079 24.4307 0.712806 24.5029 0.469495 24.6408C0.101241 24.864 0.0880889 24.8837 0.0749369 25.8422C0.0486331 27.7919 0.101241 27.8641 1.64659 27.8641H2.67902L2.63956 30.2144C2.59353 33.5231 2.68559 33.6675 5.06609 33.7988C8.59739 33.9826 18.9348 34.0548 20.6314 33.9104C21.2232 33.8644 21.7493 33.8513 22.3214 33.8644C23.1171 33.8776 23.3144 33.8644 23.4591 33.7266C23.584 33.6281 23.63 33.6281 23.63 33.7266C23.63 33.7988 23.6892 33.8644 23.755 33.8644C23.8273 33.8644 23.8799 33.7528 23.8799 33.6084C23.8799 33.4705 23.8339 33.3983 23.755 33.4377C23.6958 33.4771 23.63 33.4508 23.63 33.3786C23.63 33.1554 23.926 33.3064 24.0575 33.6018C24.1824 33.871 24.2153 33.871 26.9378 33.871C28.4568 33.871 30.5414 33.9104 31.5738 33.9432C34.3554 34.0548 38.7153 33.8973 38.7153 33.6741C38.7153 33.5756 38.7745 33.5034 38.8534 33.5034C38.9257 33.5034 38.9652 33.5887 38.9126 33.6872C38.8666 33.8447 38.9981 33.871 39.7938 33.871C40.3067 33.8841 43.1409 33.8973 46.1001 33.9104C49.0462 33.9235 51.4201 33.8973 51.3872 33.8382C51.3609 33.7922 51.4267 33.7528 51.5319 33.7528C51.6568 33.7528 51.6897 33.8119 51.6437 33.8973C51.499 34.127 54.7081 33.9367 55.2473 33.6675C56.1416 33.2276 56.1942 33.0438 56.2008 30.3851C56.214 29.0721 56.2468 27.9232 56.2994 27.8116C56.3455 27.6672 56.4441 27.6409 56.6414 27.7C56.9965 27.8248 58.3314 27.7591 58.5813 27.6278C58.7391 27.5293 58.726 27.5162 58.5418 27.5031C58.4038 27.5031 58.3314 27.444 58.3709 27.3455C58.3972 27.2733 58.4827 27.2077 58.5418 27.2208C58.6997 27.2602 58.8246 25.2973 58.6865 25.0544C58.3906 24.5292 58.3446 24.5029 57.2267 24.4439L56.1087 24.3848L56.0824 16.9993L56.043 9.62695H57.1346C58.1407 9.62695 58.2262 9.60069 58.5221 9.28558C58.7786 9.01642 58.8312 8.87199 58.7786 8.52405C58.7391 8.29428 58.7062 7.80191 58.7062 7.46054C58.7062 7.04696 58.6602 6.82375 58.5682 6.85001C58.4958 6.86314 58.3972 6.80406 58.3709 6.71215C58.3314 6.61367 58.384 6.58741 58.5418 6.63993C58.7391 6.71215 58.7391 6.69902 58.5813 6.52833C58.384 6.31826 57.174 6.21978 56.6217 6.37077C56.0693 6.5152 56.0233 6.3839 55.9443 4.17811C55.8062 0.770943 55.5498 0.285143 53.8729 0.331097C53.3797 0.344226 52.9194 0.317967 52.8405 0.285143C52.709 0.166975 50.6244 0.0225479 49.5722 0.0225479C49.1645 0.0356776 48.4543 0.0356776 47.9808 0.0356776C47.514 0.0356776 45.0874 0.0619371 42.582 0.0750668C40.0897 0.0881965 37.5777 0.114456 36.999 0.134151C36.4203 0.153845 35.7101 0.180105 35.4076 0.17354C30.6466 0.101326 26.701 0.0750668 26.4906 0.127586C26.3328 0.166975 26.221 0.239188 26.2473 0.285143C26.2604 0.331097 26.221 0.383616 26.1486 0.396745C26.0895 0.423005 26.0237 0.357356 26.0237 0.272013C26.0237 0.16041 25.4319 0.127586 23.5117 0.127586C21.5586 0.127586 21.0128 0.166975 21.0194 0.272013C21.0457 0.357356 20.9734 0.42957 20.8616 0.42957C20.7629 0.42957 20.7037 0.383616 20.7366 0.317967C20.8813 0.0947614 20.0856 0.0619371 14.496 0.0619371C11.3922 0.0619371 7.86088 0.0356776 6.64433 0.015983C5.03321 -0.0234062 4.26383 0.00941814 3.82324 0.121021V0.121021ZM28.7527 3.43628C45.5412 3.46254 51.0979 3.42315 51.0979 3.32468C51.0979 3.21307 51.1373 3.2262 51.1965 3.32468C51.2425 3.41002 51.5647 3.49536 51.8935 3.50849L52.5051 3.54788L52.5183 4.15841C52.5446 5.13658 52.7024 15.0298 52.6892 15.2399C52.6498 16.2837 52.6892 24.155 52.7484 26.8991C52.8076 29.6432 52.7945 30.4244 52.6761 30.4967C52.5906 30.5426 52.1237 30.5689 51.6568 30.5557C50.7493 30.5164 47.435 30.5164 34.7303 30.5295C28.1412 30.5426 27.2863 30.5689 27.3455 30.7264C27.3915 30.8512 27.3323 30.9102 27.1745 30.9102C27.0167 30.9102 26.9509 30.8512 27.0035 30.7264C27.0627 30.5689 26.2933 30.5557 20.8353 30.5557C17.4158 30.5689 13.6017 30.6017 12.3588 30.6411C11.1291 30.687 10.1296 30.687 10.1296 30.628C10.1296 30.4835 9.70215 30.5295 9.53775 30.687C9.42596 30.7986 9.35362 30.8118 9.29444 30.7133C9.24841 30.6148 8.65657 30.5689 7.68991 30.5557C6.85476 30.5426 6.11825 30.5098 6.07222 30.4704C6.01303 30.431 5.96043 29.9715 5.96043 29.42C5.96043 28.5994 5.93412 28.455 5.7763 28.5141C5.65136 28.56 5.59217 28.5009 5.59217 28.3434C5.59217 28.1858 5.65136 28.1202 5.7763 28.1727C5.93412 28.2318 5.96043 27.6935 5.97358 23.8005C6.01961 9.15428 6.01961 9.32496 5.84863 9.26588C5.75 9.22649 5.72369 9.18054 5.80918 9.12802C5.99331 9.01642 6.01961 7.53932 5.84863 6.99444C5.76315 6.75154 5.73684 6.48238 5.8026 6.39703C5.84863 6.31169 5.90124 5.62238 5.92755 4.89368C5.9407 4.14528 5.95385 3.47567 5.95385 3.37719C5.967 3.26559 6.03934 3.23933 6.18401 3.31811C6.2958 3.36406 16.4557 3.42315 28.7527 3.43628V3.43628Z"></path>
    <path d="M44.7328 6.4053L42.1275 6.43185L41.6484 6.903C41.2416 7.30116 41.1562 7.46043 41.0972 8.04439C40.9594 9.21896 40.9594 10.8647 41.0709 13.4925C41.13 14.8927 41.1694 16.2531 41.1431 16.5252C41.1169 16.7973 41.0972 19.0734 41.0972 21.6017L41.0841 26.1806L41.3794 26.665C41.5369 26.9238 41.8453 27.2091 42.0619 27.3087C42.5541 27.521 47.4694 27.5675 48.1191 27.3684C48.7163 27.1826 49.1954 26.5654 49.2676 25.8819C49.3923 24.6808 49.3398 15.5364 49.2085 15.1914L49.0707 14.8596H47.3907C46.2554 14.8596 45.6647 14.906 45.5663 15.0055C45.4679 15.1051 45.4219 15.5895 45.4219 16.3394V17.5272L45.7894 17.7396L46.1569 17.9652L46.17 19.3521C46.17 20.1219 46.17 21.3562 46.1569 22.126C46.1438 22.9555 46.1963 23.5992 46.2816 23.7319C46.38 23.8911 46.3932 24.0504 46.2947 24.2893C46.17 24.6211 46.1569 24.6211 45.2447 24.5746C44.2013 24.5282 44.011 24.4486 44.2013 24.203C44.3391 24.0305 44.3982 15.3772 44.2866 11.3093L44.2275 9.3185L45.1069 9.27205C46.4194 9.21233 46.4063 9.19905 46.4063 10.0883C46.4063 10.5196 46.4654 10.9178 46.5507 11.004C46.6622 11.1169 46.6622 11.15 46.5507 11.15C46.2816 11.15 46.3932 11.4951 46.6885 11.5615C47.1282 11.6477 48.8541 11.5747 48.9788 11.4487C49.0248 11.3889 49.1035 10.4333 49.1363 9.3185L49.1823 7.28789L48.841 6.94282C48.5457 6.6442 48.2898 6.54466 47.4694 6.41194C47.3907 6.3854 46.1504 6.3854 44.7328 6.4053V6.4053ZM9.75438 6.6442C9.64282 6.75701 9.61 7.46043 9.64282 9.17915C9.68219 11.953 9.66907 11.7406 9.81344 11.5084C9.91188 11.3624 9.93813 11.3956 9.93813 11.6544C9.93813 11.8269 9.87907 11.9994 9.79376 12.026C9.68219 12.0658 9.64938 12.5967 9.64938 13.8708C9.63625 15.417 9.61 15.7023 9.42625 15.8881C9.2425 16.0607 9.20312 16.3327 9.20312 17.4741C9.20312 18.2306 9.2425 18.808 9.28844 18.7748C9.4 18.662 9.81344 19.0469 9.81344 19.2725C9.81344 19.3588 9.77407 19.4318 9.72813 19.4318C9.66907 19.4318 9.61657 21.1306 9.59032 23.2076C9.57719 25.2847 9.61657 26.9835 9.6625 26.9835C9.72157 26.9835 9.83313 27.1229 9.90532 27.2954C10.0431 27.594 10.0891 27.6073 11.2638 27.6073C13.075 27.6073 12.9766 27.8329 12.9438 23.3271C12.9175 21.3562 12.8978 19.6906 12.8716 19.6242C12.7338 19.0933 12.7994 19.0668 14.5385 19.0668C16.4219 19.0668 17.1307 18.9274 17.5507 18.4828L17.8329 18.1709L17.8723 12.8024C17.8985 9.18578 17.8591 7.34098 17.7738 7.18171C17.4654 6.61102 17.1373 6.56457 13.4032 6.52475C10.8175 6.50484 9.84626 6.53139 9.75438 6.6442V6.6442ZM14.5844 9.61049C14.5976 9.73657 14.5976 11.0571 14.6107 12.5569C14.6107 14.0566 14.6501 15.1781 14.6697 15.0586C14.7682 14.687 14.9519 14.833 14.9519 15.2909C14.9519 15.6492 14.9126 15.7222 14.7551 15.6625C14.6172 15.6161 14.5844 15.6492 14.6304 15.8085C14.6894 15.9943 14.6172 16.0209 13.8822 15.981C13.4163 15.9545 13.0028 15.855 12.9044 15.7687C12.7075 15.5696 12.6944 15.2113 12.8782 15.2113C12.9635 15.2113 12.9897 14.3419 12.9372 12.3777C12.911 10.8182 12.911 9.50431 12.9503 9.47113C12.9963 9.43132 13.3769 9.39814 13.81 9.39814C14.4663 9.40477 14.5844 9.43795 14.5844 9.61049V9.61049ZM20.2282 6.60438C20.0182 6.84992 20.0904 9.59721 20.3135 9.55076C20.3857 9.53749 20.4579 9.61049 20.4579 9.71003C20.4579 9.80957 20.3857 9.88256 20.3135 9.85602C20.202 9.84275 20.1429 10.0418 20.1167 10.4864C20.0904 11.004 20.1167 11.1301 20.2414 11.0571C20.366 10.9841 20.366 10.9974 20.2676 11.1434C20.0707 11.4022 19.9395 25.424 20.1232 26.2535C20.2348 26.6982 20.366 26.9371 20.6745 27.156L21.0814 27.4746L24.2905 27.4281C27.8671 27.3817 28.123 27.3153 28.5102 26.5588C28.7793 26.0279 28.8908 21.8539 28.8252 14.5875C28.7989 11.6278 28.7792 8.68145 28.7792 8.0643C28.7792 7.34761 28.7333 6.88973 28.6414 6.82337C28.5561 6.78356 28.4708 6.8101 28.4446 6.8831C28.3855 7.09545 28.1755 7.0689 28.1755 6.84328C28.1755 6.69729 27.9786 6.65747 27.132 6.65747C25.452 6.65747 25.5767 6.24604 25.5898 11.953C25.603 14.5875 25.6358 17.4874 25.6752 18.3766C25.7342 19.5512 25.7145 20.0224 25.6161 20.0224C25.393 20.0224 25.4586 20.4935 25.7014 20.6262C25.8458 20.7258 25.872 20.7855 25.7605 20.8519C25.6752 20.9248 25.603 21.5354 25.5767 22.6436C25.5373 24.0769 25.5045 24.3756 25.3208 24.5614C25.1108 24.7737 25.0911 24.7737 24.9402 24.5614C24.7564 24.3291 24.2445 24.2893 23.877 24.4884C23.5095 24.6742 23.1289 24.3158 23.2273 23.8712C23.3126 23.4996 23.3717 13.2271 23.3126 9.50431L23.2667 6.95609L22.7417 6.67074C22.3873 6.47166 22.1314 6.39867 21.9804 6.47166C21.7507 6.5712 20.9304 6.5712 20.576 6.45839C20.4645 6.45839 20.3135 6.50484 20.2282 6.60438V6.60438ZM31.1352 6.59111C30.9974 6.77692 30.9515 11.2695 31.0893 11.8734C31.1483 12.1056 31.1483 12.6896 31.1155 13.174C31.0696 13.6584 31.0761 14.1031 31.1418 14.1893C31.2993 14.3884 31.1418 14.8463 30.9186 14.8463C30.8202 14.8463 30.7743 14.906 30.8071 14.9724C30.8465 15.0454 30.794 15.1847 30.6955 15.2909C30.4724 15.5165 30.4133 17.2485 30.6233 17.3812C30.6955 17.421 30.748 17.567 30.748 17.6931C30.748 17.8192 30.8071 17.9387 30.8858 17.9652C30.9974 18.005 31.0302 19.1132 31.0302 22.0264C31.0171 24.3557 31.0696 26.1076 31.1418 26.2005C31.2008 26.2735 31.2008 26.373 31.1549 26.3995C31.0958 26.4394 31.0696 26.6982 31.0958 26.9702L31.1418 27.4746L34.4099 27.4348C39.2794 27.3949 38.9972 27.7466 39.0103 21.6548C39.0103 17.5604 38.9972 17.3746 38.7675 17.1224C38.0325 16.3195 37.9472 16.1668 38.144 16.0607C38.6362 15.7886 38.7543 15.2179 38.7806 13.3598C38.7937 12.3711 38.82 10.5727 38.8397 9.36496C38.879 7.28789 38.8659 7.14853 38.6165 6.91627C38.2359 6.53139 37.665 6.45839 34.3443 6.44512C32.0277 6.44512 31.2336 6.47166 31.1352 6.59111V6.59111ZM35.7159 9.41804C35.7881 9.54413 35.7881 10.4798 35.7159 14.1097C35.7028 15.0122 35.6437 15.0653 34.7249 14.9126L34.1999 14.8396L34.1277 13.7646C34.0884 13.1674 34.0556 12.6033 34.0424 12.5038C34.0424 12.4042 34.0818 11.6345 34.1277 10.7983L34.2131 9.28532H34.9218C35.309 9.27869 35.6634 9.33841 35.7159 9.41804V9.41804ZM35.6634 18.1178C35.7093 18.1908 35.7618 19.1464 35.7618 20.2347C35.7618 21.323 35.7749 22.7232 35.7749 23.3536C35.7881 23.9708 35.7618 24.5415 35.7159 24.6012C35.6174 24.7605 34.3443 24.7007 34.1343 24.5149C33.9965 24.4021 33.9768 24.2561 34.049 23.9177C34.1081 23.6721 34.1606 22.272 34.1606 20.7988C34.1606 18.4961 34.1868 18.1112 34.3574 17.9917C34.5871 17.8192 35.5321 17.9055 35.6634 18.1178V18.1178Z"></path>
</svg>